<svg xmlns="http://www.w3.org/2000/svg" xmlns:xlink="http://www.w3.org/1999/xlink" viewBox="0 0 645 260" width="645" height="260" preserveAspectRatio="xMidYMid meet" style="width: 100%; height: 100%; transform: translate3d(0px, 0px, 0px); content-visibility: visible;"><defs><clipPath id="__lottie_element_156"><rect width="645" height="260" x="0" y="0"></rect></clipPath></defs><g clip-path="url(#__lottie_element_156)"><g style="display: block;" transform="matrix(0.9984622001647949,-2.4049718379974365,2.4049718379974365,0.9984622001647949,603.90576171875,37.796234130859375)" opacity="1"><g opacity="1" transform="matrix(1.090000033378601,0,0,1.090000033378601,0,0)"><path fill="rgb(112,255,129)" fill-opacity="1" d=" M-209.5,-105.25 C-210.25,-105.375 -210.31300354003906,-103.81199645996094 -210.68800354003906,-103.81199645996094 C-211.06300354003906,-103.81199645996094 -211.68699645996094,-103.18699645996094 -211.375,-102.81199645996094 C-211.06300354003906,-102.43699645996094 -210.25,-102 -209.81199645996094,-102.375 C-209.37399291992188,-102.75 -208.81199645996094,-102.3759994506836 -208.5,-102.93800354003906 C-208.18800354003906,-103.5 -208.75,-103.81300354003906 -208.68800354003906,-104.375 C-208.62600708007812,-104.93699645996094 -208.75,-105.125 -209.5,-105.25z"></path></g></g><g style="display: block;" transform="matrix(2.6040000915527344,0,0,2.6040000915527344,843.951171875,675.9579467773438)" opacity="1"><g opacity="1" transform="matrix(1.090000033378601,0,0,1.090000033378601,0,0)"><path fill="rgb(112,255,129)" fill-opacity="1" d=" M-209.5919952392578,-104.57599639892578 C-210.3419952392578,-104.70099639892578 -210.81500244140625,-104.45600128173828 -211.0570068359375,-104.16899871826172 C-211.70799255371094,-103.39700317382812 -211.68699645996094,-103.18699645996094 -211.375,-102.81199645996094 C-211.06300354003906,-102.43699645996094 -210.78399658203125,-102.06600189208984 -210.38099670410156,-102.2300033569336 C-209.97799682617188,-102.39399719238281 -209.2220001220703,-102.177001953125 -208.91000366210938,-102.73899841308594 C-208.59800720214844,-103.3010025024414 -208.89500427246094,-103.36399841308594 -208.83299255371094,-103.9260025024414 C-208.8159942626953,-104.24299621582031 -208.8419952392578,-104.45099639892578 -209.5919952392578,-104.57599639892578z"></path></g></g><g style="display: block;" transform="matrix(0.8820000290870667,0,0,0.8820000290870667,-36.62701416015625,261.9291076660156)" opacity="1"><g opacity="1" transform="matrix(1,0,0,1,0,0)"><path fill="rgb(255,255,255)" fill-opacity="1" d=" M102.25,-14.5 C101.25,-15 99.5,-11.75 98.5,-10.5 C97.5,-9.25 96,-3.25 96,0.25 C96,3.75 99.25,3.25 101.5,3.5 C103.75,3.75 104.5,8.5 103.75,11 C103,13.5 107.75,10.75 110,7 C110.9280014038086,5.453999996185303 108.5,3.5 108.75,-3 C108.81999969482422,-4.818999767303467 108.25,-6.25 106,-5.25 C103.75,-4.25 102,-1 102.5,-3.25 C103,-5.5 107,-7 106.25,-9.5 C105.5,-12 103.25,-14 102.25,-14.5z"></path></g></g><g style="display: block;" transform="matrix(-0.5096163153648376,-0.3166879117488861,0.3166879117488861,-0.5096163153648376,242.8975830078125,388.2690734863281)" opacity="1"><g opacity="1" transform="matrix(1,0,0,1,0,0)"><path fill="rgb(255,255,255)" fill-opacity="1" d=" M132,-114 C129.75,-116.25 126,-110.5 124,-107.75 C122,-105 123,-103 120,-95.5 C117,-88 119.25,-86 123,-86.25 C126.75,-86.5 132.25,-92.5 132.5,-96.75 C132.75,-101 134.25,-111.75 132,-114z"></path></g></g><g style="display: block;" transform="matrix(-0.43345654010772705,-0.41486799716949463,0.41486799716949463,-0.43345654010772705,129.37054443359375,395.3439636230469)" opacity="1"><g opacity="1" transform="matrix(1,0,0,1,0,0)"><path fill="rgb(112,255,129)" fill-opacity="1" d=" M39,-66.5 C28.351999282836914,-72.23300170898438 31.5,-64.5 32,-61.5 C32.5,-58.5 32.5,-51.5 35.5,-51.5 C38.5,-51.5 45.5,-51.5 47,-53 C48.5,-54.5 45.5,-63 39,-66.5z"></path></g></g><g style="display: block;" transform="matrix(0.17977860569953918,-0.3118968904018402,0.3118968904018402,0.17977860569953918,241.4562225341797,406.15362548828125)" opacity="1"><g opacity="1" transform="matrix(1,0,0,1,0,0)"><path fill="rgb(112,255,129)" fill-opacity="1" d=" M39,-66.5 C28.351999282836914,-72.23300170898438 31.5,-64.5 32,-61.5 C32.5,-58.5 32.5,-51.5 35.5,-51.5 C38.5,-51.5 45.5,-51.5 47,-53 C48.5,-54.5 45.5,-63 39,-66.5z"></path></g></g><g style="display: block;" transform="matrix(0.6000000238418579,0,0,0.6000000238418579,-98.16178131103516,400.9490661621094)" opacity="1"><g opacity="1" transform="matrix(1,0,0,1,226.0279998779297,-88.72200012207031)"><path fill="rgb(112,255,129)" fill-opacity="1" d=" M0,-9.050000190734863 C4.99469518661499,-9.050000190734863 9.050000190734863,-4.99469518661499 9.050000190734863,0 C9.050000190734863,4.99469518661499 4.99469518661499,9.050000190734863 0,9.050000190734863 C-4.99469518661499,9.050000190734863 -9.050000190734863,4.99469518661499 -9.050000190734863,0 C-9.050000190734863,-4.99469518661499 -4.99469518661499,-9.050000190734863 0,-9.050000190734863z"></path></g></g><g style="display: block;" transform="matrix(-0.5491129755973816,-0.241815984249115,0.241815984249115,-0.5491129755973816,-25.83818817138672,258.0687561035156)" opacity="1"><g opacity="1" transform="matrix(1,0,0,1,-209.75,-80.25)"><path fill="rgb(255,255,255)" fill-opacity="1" d=" M4.621204766542977e-16,-7.546999931335449 C4.621204766542977e-16,-7.546999931335449 2.2177138328552246,-3.0524210929870605 2.2177138328552246,-3.0524210929870605 C2.2177138328552246,-3.0524210929870605 7.177623748779297,-2.332151174545288 7.177623748779297,-2.332151174545288 C7.177623748779297,-2.332151174545288 3.588336229324341,1.1659210920333862 3.588336229324341,1.1659210920333862 C3.588336229324341,1.1659210920333862 4.4360151290893555,6.105651378631592 4.4360151290893555,6.105651378631592 C4.4360151290893555,6.105651378631592 2.310296127921497e-16,3.7730000019073486 2.310296127921497e-16,3.7730000019073486 C2.310296127921497e-16,3.7730000019073486 -4.4360151290893555,6.105651378631592 -4.4360151290893555,6.105651378631592 C-4.4360151290893555,6.105651378631592 -3.588336229324341,1.1659210920333862 -3.588336229324341,1.1659210920333862 C-3.588336229324341,1.1659210920333862 -7.177623748779297,-2.332151174545288 -7.177623748779297,-2.332151174545288 C-7.177623748779297,-2.332151174545288 -2.2177138328552246,-3.0524210929870605 -2.2177138328552246,-3.0524210929870605 C-2.2177138328552246,-3.0524210929870605 4.621204766542977e-16,-7.546999931335449 4.621204766542977e-16,-7.546999931335449z"></path></g></g><g style="display: block;" transform="matrix(-0.5968129634857178,0.061760347336530685,-0.061760347336530685,-0.5968129634857178,73.20834350585938,286.3213195800781)" opacity="1"><g opacity="1" transform="matrix(1,0,0,1,-209.75,-80.25)"><path fill="rgb(112,255,129)" fill-opacity="1" d=" M4.621204766542977e-16,-7.546999931335449 C4.621204766542977e-16,-7.546999931335449 2.2177138328552246,-3.0524210929870605 2.2177138328552246,-3.0524210929870605 C2.2177138328552246,-3.0524210929870605 7.177623748779297,-2.332151174545288 7.177623748779297,-2.332151174545288 C7.177623748779297,-2.332151174545288 3.588336229324341,1.1659210920333862 3.588336229324341,1.1659210920333862 C3.588336229324341,1.1659210920333862 4.4360151290893555,6.105651378631592 4.4360151290893555,6.105651378631592 C4.4360151290893555,6.105651378631592 2.310296127921497e-16,3.7730000019073486 2.310296127921497e-16,3.7730000019073486 C2.310296127921497e-16,3.7730000019073486 -4.4360151290893555,6.105651378631592 -4.4360151290893555,6.105651378631592 C-4.4360151290893555,6.105651378631592 -3.588336229324341,1.1659210920333862 -3.588336229324341,1.1659210920333862 C-3.588336229324341,1.1659210920333862 -7.177623748779297,-2.332151174545288 -7.177623748779297,-2.332151174545288 C-7.177623748779297,-2.332151174545288 -2.2177138328552246,-3.0524210929870605 -2.2177138328552246,-3.0524210929870605 C-2.2177138328552246,-3.0524210929870605 4.621204766542977e-16,-7.546999931335449 4.621204766542977e-16,-7.546999931335449z"></path></g></g><g style="display: block;" transform="matrix(0.06522921472787857,-0.596443772315979,0.596443772315979,0.06522921472787857,136.14869689941406,204.65322875976562)" opacity="1"><g opacity="1" transform="matrix(1.4800000190734863,0,0,1.4800000190734863,-209.75,-80.25)"><path fill="rgb(255,255,255)" fill-opacity="1" d=" M4.621204766542977e-16,-7.546999931335449 C4.621204766542977e-16,-7.546999931335449 1.8865000009536743,-3.2675137519836426 1.8865000009536743,-3.2675137519836426 C1.8865000009536743,-3.2675137519836426 6.53589391708374,-3.7734999656677246 6.53589391708374,-3.7734999656677246 C6.53589391708374,-3.7734999656677246 3.7730000019073486,-8.377742948056596e-16 3.7730000019073486,-8.377742948056596e-16 C3.7730000019073486,-8.377742948056596e-16 6.53589391708374,3.7734999656677246 6.53589391708374,3.7734999656677246 C6.53589391708374,3.7734999656677246 1.8865000009536743,3.2675137519836426 1.8865000009536743,3.2675137519836426 C1.8865000009536743,3.2675137519836426 3.813661659959975e-15,7.546999931335449 3.813661659959975e-15,7.546999931335449 C3.813661659959975e-15,7.546999931335449 -1.8865000009536743,3.2675137519836426 -1.8865000009536743,3.2675137519836426 C-1.8865000009536743,3.2675137519836426 -6.53589391708374,3.7734999656677246 -6.53589391708374,3.7734999656677246 C-6.53589391708374,3.7734999656677246 -3.7730000019073486,3.813156404806938e-15 -3.7730000019073486,3.813156404806938e-15 C-3.7730000019073486,3.813156404806938e-15 -6.53589391708374,-3.7734999656677246 -6.53589391708374,-3.7734999656677246 C-6.53589391708374,-3.7734999656677246 -1.8865000009536743,-3.2675137519836426 -1.8865000009536743,-3.2675137519836426 C-1.8865000009536743,-3.2675137519836426 4.621204766542977e-16,-7.546999931335449 4.621204766542977e-16,-7.546999931335449z"></path></g></g><g style="display: block;" transform="matrix(0.3610919117927551,-0.47917914390563965,0.47917914390563965,0.3610919117927551,303.03277587890625,283.6239929199219)" opacity="1"><g opacity="1" transform="matrix(1.4800000190734863,0,0,1.4800000190734863,-209.75,-80.25)"><path fill="rgb(112,255,129)" fill-opacity="1" d=" M4.621204766542977e-16,-7.546999931335449 C4.621204766542977e-16,-7.546999931335449 1.8865000009536743,-3.2675137519836426 1.8865000009536743,-3.2675137519836426 C1.8865000009536743,-3.2675137519836426 6.53589391708374,-3.7734999656677246 6.53589391708374,-3.7734999656677246 C6.53589391708374,-3.7734999656677246 3.7730000019073486,-8.377742948056596e-16 3.7730000019073486,-8.377742948056596e-16 C3.7730000019073486,-8.377742948056596e-16 6.53589391708374,3.7734999656677246 6.53589391708374,3.7734999656677246 C6.53589391708374,3.7734999656677246 1.8865000009536743,3.2675137519836426 1.8865000009536743,3.2675137519836426 C1.8865000009536743,3.2675137519836426 3.813661659959975e-15,7.546999931335449 3.813661659959975e-15,7.546999931335449 C3.813661659959975e-15,7.546999931335449 -1.8865000009536743,3.2675137519836426 -1.8865000009536743,3.2675137519836426 C-1.8865000009536743,3.2675137519836426 -6.53589391708374,3.7734999656677246 -6.53589391708374,3.7734999656677246 C-6.53589391708374,3.7734999656677246 -3.7730000019073486,3.813156404806938e-15 -3.7730000019073486,3.813156404806938e-15 C-3.7730000019073486,3.813156404806938e-15 -6.53589391708374,-3.7734999656677246 -6.53589391708374,-3.7734999656677246 C-6.53589391708374,-3.7734999656677246 -1.8865000009536743,-3.2675137519836426 -1.8865000009536743,-3.2675137519836426 C-1.8865000009536743,-3.2675137519836426 4.621204766542977e-16,-7.546999931335449 4.621204766542977e-16,-7.546999931335449z"></path></g></g><g style="display: block;" transform="matrix(-0.9543691277503967,2.422807216644287,-2.422807216644287,-0.9543691277503967,-90.9317626953125,782.9923095703125)" opacity="1"><g opacity="1" transform="matrix(1.090000033378601,0,0,1.090000033378601,0,0)"><path fill="rgb(255,255,255)" fill-opacity="1" d=" M-209.5,-105.25 C-210.25,-105.375 -210.31300354003906,-103.81199645996094 -210.68800354003906,-103.81199645996094 C-211.06300354003906,-103.81199645996094 -211.68699645996094,-103.18699645996094 -211.375,-102.81199645996094 C-211.06300354003906,-102.43699645996094 -210.25,-102 -209.81199645996094,-102.375 C-209.37399291992188,-102.75 -208.81199645996094,-102.3759994506836 -208.5,-102.93800354003906 C-208.18800354003906,-103.5 -208.75,-103.81300354003906 -208.68800354003906,-104.375 C-208.62600708007812,-104.93699645996094 -208.75,-105.125 -209.5,-105.25z"></path></g></g><g style="display: block;" transform="matrix(2.3788723945617676,-1.0591422319412231,1.0591422319412231,2.3788723945617676,643.7993774414062,341.9195556640625)" opacity="1"><g opacity="1" transform="matrix(1.090000033378601,0,0,1.090000033378601,0,0)"><path fill="rgb(255,255,255)" fill-opacity="1" d=" M-209.5919952392578,-104.57599639892578 C-210.3419952392578,-104.70099639892578 -210.81500244140625,-104.45600128173828 -211.0570068359375,-104.16899871826172 C-211.70799255371094,-103.39700317382812 -211.68699645996094,-103.18699645996094 -211.375,-102.81199645996094 C-211.06300354003906,-102.43699645996094 -210.78399658203125,-102.06600189208984 -210.38099670410156,-102.2300033569336 C-209.97799682617188,-102.39399719238281 -209.2220001220703,-102.177001953125 -208.91000366210938,-102.73899841308594 C-208.59800720214844,-103.3010025024414 -208.89500427246094,-103.36399841308594 -208.83299255371094,-103.9260025024414 C-208.8159942626953,-104.24299621582031 -208.8419952392578,-104.45099639892578 -209.5919952392578,-104.57599639892578z"></path></g></g><g style="display: block;" transform="matrix(0.6000000238418579,0,0,0.6000000238418579,69.94922637939453,375.8898620605469)" opacity="1"><g opacity="1" transform="matrix(1,0,0,1,159.09300231933594,-46.43199920654297)"><path fill="rgb(255,255,255)" fill-opacity="1" d=" M0,-4.550000190734863 C2.5111451148986816,-4.550000190734863 4.550000190734863,-2.5111451148986816 4.550000190734863,0 C4.550000190734863,2.5111451148986816 2.5111451148986816,4.550000190734863 0,4.550000190734863 C-2.5111451148986816,4.550000190734863 -4.550000190734863,2.5111451148986816 -4.550000190734863,0 C-4.550000190734863,-2.5111451148986816 -2.5111451148986816,-4.550000190734863 0,-4.550000190734863z"></path></g></g><g style="display: block;" transform="matrix(0.4813864827156067,0.3581439256668091,-0.3581439256668091,0.4813864827156067,200.78904724121094,443.41693115234375)" opacity="1"><g opacity="1" transform="matrix(1,0,0,1,-209.75,-80.25)"><path fill="rgb(112,255,129)" fill-opacity="1" d=" M4.621204766542977e-16,-7.546999931335449 C4.621204766542977e-16,-7.546999931335449 2.2177138328552246,-3.0524210929870605 2.2177138328552246,-3.0524210929870605 C2.2177138328552246,-3.0524210929870605 7.177623748779297,-2.332151174545288 7.177623748779297,-2.332151174545288 C7.177623748779297,-2.332151174545288 3.588336229324341,1.1659210920333862 3.588336229324341,1.1659210920333862 C3.588336229324341,1.1659210920333862 4.4360151290893555,6.105651378631592 4.4360151290893555,6.105651378631592 C4.4360151290893555,6.105651378631592 2.310296127921497e-16,3.7730000019073486 2.310296127921497e-16,3.7730000019073486 C2.310296127921497e-16,3.7730000019073486 -4.4360151290893555,6.105651378631592 -4.4360151290893555,6.105651378631592 C-4.4360151290893555,6.105651378631592 -3.588336229324341,1.1659210920333862 -3.588336229324341,1.1659210920333862 C-3.588336229324341,1.1659210920333862 -7.177623748779297,-2.332151174545288 -7.177623748779297,-2.332151174545288 C-7.177623748779297,-2.332151174545288 -2.2177138328552246,-3.0524210929870605 -2.2177138328552246,-3.0524210929870605 C-2.2177138328552246,-3.0524210929870605 4.621204766542977e-16,-7.546999931335449 4.621204766542977e-16,-7.546999931335449z"></path></g></g><g style="display: block;" transform="matrix(0.43799999356269836,0,0,0.43799999356269836,-269.7236328125,365.19171142578125)" opacity="1"><g opacity="1" transform="matrix(1,0,0,1,226.0279998779297,-88.72200012207031)"><path fill="rgb(112,255,129)" fill-opacity="1" d=" M0,-9.050000190734863 C4.99469518661499,-9.050000190734863 9.050000190734863,-4.99469518661499 9.050000190734863,0 C9.050000190734863,4.99469518661499 4.99469518661499,9.050000190734863 0,9.050000190734863 C-4.99469518661499,9.050000190734863 -9.050000190734863,4.99469518661499 -9.050000190734863,0 C-9.050000190734863,-4.99469518661499 -4.99469518661499,-9.050000190734863 0,-9.050000190734863z"></path></g></g><g style="display: block;" transform="matrix(0.10780666768550873,0.5902353525161743,-0.5902353525161743,0.10780666768550873,-153.8170623779297,471.861572265625)" opacity="1"><g opacity="1" transform="matrix(1.4800000190734863,0,0,1.4800000190734863,-209.75,-80.25)"><path fill="rgb(112,255,129)" fill-opacity="1" d=" M4.621204766542977e-16,-7.546999931335449 C4.621204766542977e-16,-7.546999931335449 1.8865000009536743,-3.2675137519836426 1.8865000009536743,-3.2675137519836426 C1.8865000009536743,-3.2675137519836426 6.53589391708374,-3.7734999656677246 6.53589391708374,-3.7734999656677246 C6.53589391708374,-3.7734999656677246 3.7730000019073486,-8.377742948056596e-16 3.7730000019073486,-8.377742948056596e-16 C3.7730000019073486,-8.377742948056596e-16 6.53589391708374,3.7734999656677246 6.53589391708374,3.7734999656677246 C6.53589391708374,3.7734999656677246 1.8865000009536743,3.2675137519836426 1.8865000009536743,3.2675137519836426 C1.8865000009536743,3.2675137519836426 3.813661659959975e-15,7.546999931335449 3.813661659959975e-15,7.546999931335449 C3.813661659959975e-15,7.546999931335449 -1.8865000009536743,3.2675137519836426 -1.8865000009536743,3.2675137519836426 C-1.8865000009536743,3.2675137519836426 -6.53589391708374,3.7734999656677246 -6.53589391708374,3.7734999656677246 C-6.53589391708374,3.7734999656677246 -3.7730000019073486,3.813156404806938e-15 -3.7730000019073486,3.813156404806938e-15 C-3.7730000019073486,3.813156404806938e-15 -6.53589391708374,-3.7734999656677246 -6.53589391708374,-3.7734999656677246 C-6.53589391708374,-3.7734999656677246 -1.8865000009536743,-3.2675137519836426 -1.8865000009536743,-3.2675137519836426 C-1.8865000009536743,-3.2675137519836426 4.621204766542977e-16,-7.546999931335449 4.621204766542977e-16,-7.546999931335449z"></path></g></g><g style="display: block;" transform="matrix(-0.7200139164924622,-0.509415328502655,0.509415328502655,-0.7200139164924622,-30.2144775390625,410.724609375)" opacity="1"><g opacity="1" transform="matrix(1,0,0,1,0,0)"><path fill="rgb(255,255,255)" fill-opacity="1" d=" M102.25,-14.5 C101.25,-15 99.5,-11.75 98.5,-10.5 C97.5,-9.25 96,-3.25 96,0.25 C96,3.75 99.25,3.25 101.5,3.5 C103.75,3.75 104.5,8.5 103.75,11 C103,13.5 107.75,10.75 110,7 C110.9280014038086,5.453999996185303 108.5,3.5 108.75,-3 C108.81999969482422,-4.818999767303467 108.25,-6.25 106,-5.25 C103.75,-4.25 102,-1 102.5,-3.25 C103,-5.5 107,-7 106.25,-9.5 C105.5,-12 103.25,-14 102.25,-14.5z"></path></g></g><g style="display: block;" transform="matrix(-0.5970340371131897,0.059584904462099075,-0.059584904462099075,-0.5970340371131897,374.721435546875,281.2071228027344)" opacity="1"><g opacity="1" transform="matrix(1,0,0,1,0,0)"><path fill="rgb(255,255,255)" fill-opacity="1" d=" M132,-114 C129.75,-116.25 126,-110.5 124,-107.75 C122,-105 123,-103 120,-95.5 C117,-88 119.25,-86 123,-86.25 C126.75,-86.5 132.25,-92.5 132.5,-96.75 C132.75,-101 134.25,-111.75 132,-114z"></path></g></g><g style="display: block;" transform="matrix(0.12896214425563812,-0.8725209832191467,0.8725209832191467,0.12896214425563812,296.0748291015625,441.04180908203125)" opacity="1"><g opacity="1" transform="matrix(1,0,0,1,0,0)"><path fill="rgb(112,255,129)" fill-opacity="1" d=" M102.25,-14.5 C101.25,-15 99.5,-11.75 98.5,-10.5 C97.5,-9.25 96,-3.25 96,0.25 C96,3.75 99.25,3.25 101.5,3.5 C103.75,3.75 104.5,8.5 103.75,11 C103,13.5 107.75,10.75 110,7 C110.9280014038086,5.453999996185303 108.5,3.5 108.75,-3 C108.81999969482422,-4.818999767303467 108.25,-6.25 106,-5.25 C103.75,-4.25 102,-1 102.5,-3.25 C103,-5.5 107,-7 106.25,-9.5 C105.5,-12 103.25,-14 102.25,-14.5z"></path></g></g><g style="display: block;" transform="matrix(-0.06271708011627197,-0.5967131853103638,0.5967131853103638,-0.06271708011627197,311.7323303222656,183.91668701171875)" opacity="1"><g opacity="1" transform="matrix(1,0,0,1,-209.75,-80.25)"><path fill="rgb(255,255,255)" fill-opacity="1" d=" M4.621204766542977e-16,-7.546999931335449 C4.621204766542977e-16,-7.546999931335449 2.2177138328552246,-3.0524210929870605 2.2177138328552246,-3.0524210929870605 C2.2177138328552246,-3.0524210929870605 7.177623748779297,-2.332151174545288 7.177623748779297,-2.332151174545288 C7.177623748779297,-2.332151174545288 3.588336229324341,1.1659210920333862 3.588336229324341,1.1659210920333862 C3.588336229324341,1.1659210920333862 4.4360151290893555,6.105651378631592 4.4360151290893555,6.105651378631592 C4.4360151290893555,6.105651378631592 2.310296127921497e-16,3.7730000019073486 2.310296127921497e-16,3.7730000019073486 C2.310296127921497e-16,3.7730000019073486 -4.4360151290893555,6.105651378631592 -4.4360151290893555,6.105651378631592 C-4.4360151290893555,6.105651378631592 -3.588336229324341,1.1659210920333862 -3.588336229324341,1.1659210920333862 C-3.588336229324341,1.1659210920333862 -7.177623748779297,-2.332151174545288 -7.177623748779297,-2.332151174545288 C-7.177623748779297,-2.332151174545288 -2.2177138328552246,-3.0524210929870605 -2.2177138328552246,-3.0524210929870605 C-2.2177138328552246,-3.0524210929870605 4.621204766542977e-16,-7.546999931335449 4.621204766542977e-16,-7.546999931335449z"></path></g></g><g style="display: block;" transform="matrix(0.6000000238418579,0,0,0.6000000238418579,-183.22561645507812,314.0589294433594)" opacity="1"><g opacity="1" transform="matrix(1,0,0,1,159.09300231933594,-46.43199920654297)"><path fill="rgb(255,255,255)" fill-opacity="1" d=" M0,-4.550000190734863 C2.5111451148986816,-4.550000190734863 4.550000190734863,-2.5111451148986816 4.550000190734863,0 C4.550000190734863,2.5111451148986816 2.5111451148986816,4.550000190734863 0,4.550000190734863 C-2.5111451148986816,4.550000190734863 -4.550000190734863,2.5111451148986816 -4.550000190734863,0 C-4.550000190734863,-2.5111451148986816 -2.5111451148986816,-4.550000190734863 0,-4.550000190734863z"></path></g></g><g style="display: block;" transform="matrix(0,-0.6000000238418579,0.6000000238418579,0,329.99853515625,156.65109252929688)" opacity="1"><g opacity="1" transform="matrix(1,0,0,1,-209.75,-80.25)"><path fill="rgb(255,255,255)" fill-opacity="1" d=" M4.621204766542977e-16,-7.546999931335449 C4.621204766542977e-16,-7.546999931335449 2.2177138328552246,-3.0524210929870605 2.2177138328552246,-3.0524210929870605 C2.2177138328552246,-3.0524210929870605 7.177623748779297,-2.332151174545288 7.177623748779297,-2.332151174545288 C7.177623748779297,-2.332151174545288 3.588336229324341,1.1659210920333862 3.588336229324341,1.1659210920333862 C3.588336229324341,1.1659210920333862 4.4360151290893555,6.105651378631592 4.4360151290893555,6.105651378631592 C4.4360151290893555,6.105651378631592 2.310296127921497e-16,3.7730000019073486 2.310296127921497e-16,3.7730000019073486 C2.310296127921497e-16,3.7730000019073486 -4.4360151290893555,6.105651378631592 -4.4360151290893555,6.105651378631592 C-4.4360151290893555,6.105651378631592 -3.588336229324341,1.1659210920333862 -3.588336229324341,1.1659210920333862 C-3.588336229324341,1.1659210920333862 -7.177623748779297,-2.332151174545288 -7.177623748779297,-2.332151174545288 C-7.177623748779297,-2.332151174545288 -2.2177138328552246,-3.0524210929870605 -2.2177138328552246,-3.0524210929870605 C-2.2177138328552246,-3.0524210929870605 4.621204766542977e-16,-7.546999931335449 4.621204766542977e-16,-7.546999931335449z"></path></g></g><g style="display: none;" transform="matrix(0.8914539217948914,0,0,0.8914539217948914,172.69789123535156,46.41620635986328)" opacity="0.08722857142899855"><g opacity="1" transform="matrix(1,0,0,1,-29.5,37.5)"><path fill="rgb(255,255,255)" fill-opacity="1" d=" M0,-23.106000900268555 C-12.76099967956543,-23.106000900268555 -23.106000900268555,-12.76099967956543 -23.106000900268555,0 C-23.106000900268555,12.76099967956543 -12.76099967956543,23.106000900268555 0,23.106000900268555 C12.76099967956543,23.106000900268555 23.106000900268555,12.76099967956543 23.106000900268555,0 C23.106000900268555,-12.76099967956543 12.76099967956543,-23.106000900268555 0,-23.106000900268555z"></path></g></g><g style="display: none;" transform="matrix(1.0740139484405518,0,0,1.0740139484405518,178.08340454101562,39.66148376464844)" opacity="0.09060000000041242"><g opacity="1" transform="matrix(1,0,0,1,-29.5,37.5)"><path stroke-linecap="butt" stroke-linejoin="miter" fill-opacity="0" stroke-miterlimit="4" stroke="rgb(255,255,255)" stroke-opacity="1" stroke-width="4" d=" M0,-23.106000900268555 C-12.76099967956543,-23.106000900268555 -23.106000900268555,-12.76099967956543 -23.106000900268555,0 C-23.106000900268555,12.76099967956543 -12.76099967956543,23.106000900268555 0,23.106000900268555 C12.76099967956543,23.106000900268555 23.106000900268555,12.76099967956543 23.106000900268555,0 C23.106000900268555,-12.76099967956543 12.76099967956543,-23.106000900268555 0,-23.106000900268555z"></path></g></g><g style="display: none;" transform="matrix(-2.4216103553771973,0.9574031233787537,-0.9574031233787537,-2.4216103553771973,-416.7281799316406,29.673006057739258)" opacity="1"><g opacity="1" transform="matrix(1.090000033378601,0,0,1.090000033378601,0,0)"><path fill="rgb(112,255,129)" fill-opacity="1" d=" M-209.5,-105.25 C-210.25,-105.375 -210.31300354003906,-103.81199645996094 -210.68800354003906,-103.81199645996094 C-211.06300354003906,-103.81199645996094 -211.68699645996094,-103.18699645996094 -211.375,-102.81199645996094 C-211.06300354003906,-102.43699645996094 -210.25,-102 -209.81199645996094,-102.375 C-209.37399291992188,-102.75 -208.81199645996094,-102.3759994506836 -208.5,-102.93800354003906 C-208.18800354003906,-103.5 -208.75,-103.81300354003906 -208.68800354003906,-104.375 C-208.62600708007812,-104.93699645996094 -208.75,-105.125 -209.5,-105.25z"></path></g></g><g style="display: none;" transform="matrix(2.6040000915527344,0,0,2.6040000915527344,922.7304077148438,292.2199401855469)" opacity="1"><g opacity="1" transform="matrix(1.090000033378601,0,0,1.090000033378601,0,0)"><path fill="rgb(112,255,129)" fill-opacity="1" d=" M-209.5919952392578,-104.57599639892578 C-210.3419952392578,-104.70099639892578 -210.81500244140625,-104.45600128173828 -211.0570068359375,-104.16899871826172 C-211.70799255371094,-103.39700317382812 -211.68699645996094,-103.18699645996094 -211.375,-102.81199645996094 C-211.06300354003906,-102.43699645996094 -210.78399658203125,-102.06600189208984 -210.38099670410156,-102.2300033569336 C-209.97799682617188,-102.39399719238281 -209.2220001220703,-102.177001953125 -208.91000366210938,-102.73899841308594 C-208.59800720214844,-103.3010025024414 -208.89500427246094,-103.36399841308594 -208.83299255371094,-103.9260025024414 C-208.8159942626953,-104.24299621582031 -208.8419952392578,-104.45099639892578 -209.5919952392578,-104.57599639892578z"></path></g></g><g style="display: none;" transform="matrix(0.8820000290870667,0,0,0.8820000290870667,138.24188232421875,-138.7909393310547)" opacity="1"><g opacity="1" transform="matrix(1,0,0,1,0,0)"><path fill="rgb(255,255,255)" fill-opacity="1" d=" M102.25,-14.5 C101.25,-15 99.5,-11.75 98.5,-10.5 C97.5,-9.25 96,-3.25 96,0.25 C96,3.75 99.25,3.25 101.5,3.5 C103.75,3.75 104.5,8.5 103.75,11 C103,13.5 107.75,10.75 110,7 C110.9280014038086,5.453999996185303 108.5,3.5 108.75,-3 C108.81999969482422,-4.818999767303467 108.25,-6.25 106,-5.25 C103.75,-4.25 102,-1 102.5,-3.25 C103,-5.5 107,-7 106.25,-9.5 C105.5,-12 103.25,-14 102.25,-14.5z"></path></g></g><g style="display: none;" transform="matrix(-0.02821301855146885,0.5993363261222839,-0.5993363261222839,-0.02821301855146885,217.6451873779297,-100.11040496826172)" opacity="1"><g opacity="1" transform="matrix(1,0,0,1,0,0)"><path fill="rgb(255,255,255)" fill-opacity="1" d=" M132,-114 C129.75,-116.25 126,-110.5 124,-107.75 C122,-105 123,-103 120,-95.5 C117,-88 119.25,-86 123,-86.25 C126.75,-86.5 132.25,-92.5 132.5,-96.75 C132.75,-101 134.25,-111.75 132,-114z"></path></g></g><g style="display: none;" transform="matrix(0.014015115797519684,0.5998362898826599,-0.5998362898826599,0.014015115797519684,206.79385375976562,-24.503162384033203)" opacity="1"><g opacity="1" transform="matrix(1,0,0,1,0,0)"><path fill="rgb(112,255,129)" fill-opacity="1" d=" M39,-66.5 C28.351999282836914,-72.23300170898438 31.5,-64.5 32,-61.5 C32.5,-58.5 32.5,-51.5 35.5,-51.5 C38.5,-51.5 45.5,-51.5 47,-53 C48.5,-54.5 45.5,-63 39,-66.5z"></path></g></g><g style="display: none;" transform="matrix(-0.3569977283477783,0.04639657586812973,-0.04639657586812973,-0.3569977283477783,328.24664306640625,-12.378421783447266)" opacity="1"><g opacity="1" transform="matrix(1,0,0,1,0,0)"><path fill="rgb(112,255,129)" fill-opacity="1" d=" M39,-66.5 C28.351999282836914,-72.23300170898438 31.5,-64.5 32,-61.5 C32.5,-58.5 32.5,-51.5 35.5,-51.5 C38.5,-51.5 45.5,-51.5 47,-53 C48.5,-54.5 45.5,-63 39,-66.5z"></path></g></g><g style="display: none;" transform="matrix(0.6000000238418579,0,0,0.6000000238418579,48.002342224121094,79.54367065429688)" opacity="1"><g opacity="1" transform="matrix(1,0,0,1,226.0279998779297,-88.72200012207031)"><path fill="rgb(112,255,129)" fill-opacity="1" d=" M0,-9.050000190734863 C4.99469518661499,-9.050000190734863 9.050000190734863,-4.99469518661499 9.050000190734863,0 C9.050000190734863,4.99469518661499 4.99469518661499,9.050000190734863 0,9.050000190734863 C-4.99469518661499,9.050000190734863 -9.050000190734863,4.99469518661499 -9.050000190734863,0 C-9.050000190734863,-4.99469518661499 -4.99469518661499,-9.050000190734863 0,-9.050000190734863z"></path></g></g><g style="display: none;" transform="matrix(0.09649386256933212,0.5921899676322937,-0.5921899676322937,0.09649386256933212,194.52767944335938,138.56031799316406)" opacity="1"><g opacity="1" transform="matrix(1,0,0,1,-209.75,-80.25)"><path fill="rgb(255,255,255)" fill-opacity="1" d=" M4.621204766542977e-16,-7.546999931335449 C4.621204766542977e-16,-7.546999931335449 2.2177138328552246,-3.0524210929870605 2.2177138328552246,-3.0524210929870605 C2.2177138328552246,-3.0524210929870605 7.177623748779297,-2.332151174545288 7.177623748779297,-2.332151174545288 C7.177623748779297,-2.332151174545288 3.588336229324341,1.1659210920333862 3.588336229324341,1.1659210920333862 C3.588336229324341,1.1659210920333862 4.4360151290893555,6.105651378631592 4.4360151290893555,6.105651378631592 C4.4360151290893555,6.105651378631592 2.310296127921497e-16,3.7730000019073486 2.310296127921497e-16,3.7730000019073486 C2.310296127921497e-16,3.7730000019073486 -4.4360151290893555,6.105651378631592 -4.4360151290893555,6.105651378631592 C-4.4360151290893555,6.105651378631592 -3.588336229324341,1.1659210920333862 -3.588336229324341,1.1659210920333862 C-3.588336229324341,1.1659210920333862 -7.177623748779297,-2.332151174545288 -7.177623748779297,-2.332151174545288 C-7.177623748779297,-2.332151174545288 -2.2177138328552246,-3.0524210929870605 -2.2177138328552246,-3.0524210929870605 C-2.2177138328552246,-3.0524210929870605 4.621204766542977e-16,-7.546999931335449 4.621204766542977e-16,-7.546999931335449z"></path></g></g><g style="display: none;" transform="matrix(0.5889220237731934,0.11476434022188187,-0.11476434022188187,0.5889220237731934,417.8082275390625,44.64516067504883)" opacity="1"><g opacity="1" transform="matrix(1,0,0,1,-209.75,-80.25)"><path fill="rgb(112,255,129)" fill-opacity="1" d=" M4.621204766542977e-16,-7.546999931335449 C4.621204766542977e-16,-7.546999931335449 2.2177138328552246,-3.0524210929870605 2.2177138328552246,-3.0524210929870605 C2.2177138328552246,-3.0524210929870605 7.177623748779297,-2.332151174545288 7.177623748779297,-2.332151174545288 C7.177623748779297,-2.332151174545288 3.588336229324341,1.1659210920333862 3.588336229324341,1.1659210920333862 C3.588336229324341,1.1659210920333862 4.4360151290893555,6.105651378631592 4.4360151290893555,6.105651378631592 C4.4360151290893555,6.105651378631592 2.310296127921497e-16,3.7730000019073486 2.310296127921497e-16,3.7730000019073486 C2.310296127921497e-16,3.7730000019073486 -4.4360151290893555,6.105651378631592 -4.4360151290893555,6.105651378631592 C-4.4360151290893555,6.105651378631592 -3.588336229324341,1.1659210920333862 -3.588336229324341,1.1659210920333862 C-3.588336229324341,1.1659210920333862 -7.177623748779297,-2.332151174545288 -7.177623748779297,-2.332151174545288 C-7.177623748779297,-2.332151174545288 -2.2177138328552246,-3.0524210929870605 -2.2177138328552246,-3.0524210929870605 C-2.2177138328552246,-3.0524210929870605 4.621204766542977e-16,-7.546999931335449 4.621204766542977e-16,-7.546999931335449z"></path></g></g><g style="display: none;" transform="matrix(-0.3167114555835724,0.5096016526222229,-0.5096016526222229,-0.3167114555835724,118.46098327636719,74.94269561767578)" opacity="1"><g opacity="1" transform="matrix(1.4800000190734863,0,0,1.4800000190734863,-209.75,-80.25)"><path fill="rgb(255,255,255)" fill-opacity="1" d=" M4.621204766542977e-16,-7.546999931335449 C4.621204766542977e-16,-7.546999931335449 1.8865000009536743,-3.2675137519836426 1.8865000009536743,-3.2675137519836426 C1.8865000009536743,-3.2675137519836426 6.53589391708374,-3.7734999656677246 6.53589391708374,-3.7734999656677246 C6.53589391708374,-3.7734999656677246 3.7730000019073486,-8.377742948056596e-16 3.7730000019073486,-8.377742948056596e-16 C3.7730000019073486,-8.377742948056596e-16 6.53589391708374,3.7734999656677246 6.53589391708374,3.7734999656677246 C6.53589391708374,3.7734999656677246 1.8865000009536743,3.2675137519836426 1.8865000009536743,3.2675137519836426 C1.8865000009536743,3.2675137519836426 3.813661659959975e-15,7.546999931335449 3.813661659959975e-15,7.546999931335449 C3.813661659959975e-15,7.546999931335449 -1.8865000009536743,3.2675137519836426 -1.8865000009536743,3.2675137519836426 C-1.8865000009536743,3.2675137519836426 -6.53589391708374,3.7734999656677246 -6.53589391708374,3.7734999656677246 C-6.53589391708374,3.7734999656677246 -3.7730000019073486,3.813156404806938e-15 -3.7730000019073486,3.813156404806938e-15 C-3.7730000019073486,3.813156404806938e-15 -6.53589391708374,-3.7734999656677246 -6.53589391708374,-3.7734999656677246 C-6.53589391708374,-3.7734999656677246 -1.8865000009536743,-3.2675137519836426 -1.8865000009536743,-3.2675137519836426 C-1.8865000009536743,-3.2675137519836426 4.621204766542977e-16,-7.546999931335449 4.621204766542977e-16,-7.546999931335449z"></path></g></g><g style="display: none;" transform="matrix(-0.5588396787643433,-0.21839934587478638,0.21839934587478638,-0.5588396787643433,197.60520935058594,-55.364444732666016)" opacity="1"><g opacity="1" transform="matrix(1.4800000190734863,0,0,1.4800000190734863,-209.75,-80.25)"><path fill="rgb(112,255,129)" fill-opacity="1" d=" M4.621204766542977e-16,-7.546999931335449 C4.621204766542977e-16,-7.546999931335449 1.8865000009536743,-3.2675137519836426 1.8865000009536743,-3.2675137519836426 C1.8865000009536743,-3.2675137519836426 6.53589391708374,-3.7734999656677246 6.53589391708374,-3.7734999656677246 C6.53589391708374,-3.7734999656677246 3.7730000019073486,-8.377742948056596e-16 3.7730000019073486,-8.377742948056596e-16 C3.7730000019073486,-8.377742948056596e-16 6.53589391708374,3.7734999656677246 6.53589391708374,3.7734999656677246 C6.53589391708374,3.7734999656677246 1.8865000009536743,3.2675137519836426 1.8865000009536743,3.2675137519836426 C1.8865000009536743,3.2675137519836426 3.813661659959975e-15,7.546999931335449 3.813661659959975e-15,7.546999931335449 C3.813661659959975e-15,7.546999931335449 -1.8865000009536743,3.2675137519836426 -1.8865000009536743,3.2675137519836426 C-1.8865000009536743,3.2675137519836426 -6.53589391708374,3.7734999656677246 -6.53589391708374,3.7734999656677246 C-6.53589391708374,3.7734999656677246 -3.7730000019073486,3.813156404806938e-15 -3.7730000019073486,3.813156404806938e-15 C-3.7730000019073486,3.813156404806938e-15 -6.53589391708374,-3.7734999656677246 -6.53589391708374,-3.7734999656677246 C-6.53589391708374,-3.7734999656677246 -1.8865000009536743,-3.2675137519836426 -1.8865000009536743,-3.2675137519836426 C-1.8865000009536743,-3.2675137519836426 4.621204766542977e-16,-7.546999931335449 4.621204766542977e-16,-7.546999931335449z"></path></g></g><g style="display: none;" transform="matrix(-0.9543692469596863,2.4228076934814453,-2.4228076934814453,-0.9543692469596863,-69.44532012939453,447.0868225097656)" opacity="1"><g opacity="1" transform="matrix(1.090000033378601,0,0,1.090000033378601,0,0)"><path fill="rgb(255,255,255)" fill-opacity="1" d=" M-209.5,-105.25 C-210.25,-105.375 -210.31300354003906,-103.81199645996094 -210.68800354003906,-103.81199645996094 C-211.06300354003906,-103.81199645996094 -211.68699645996094,-103.18699645996094 -211.375,-102.81199645996094 C-211.06300354003906,-102.43699645996094 -210.25,-102 -209.81199645996094,-102.375 C-209.37399291992188,-102.75 -208.81199645996094,-102.3759994506836 -208.5,-102.93800354003906 C-208.18800354003906,-103.5 -208.75,-103.81300354003906 -208.68800354003906,-104.375 C-208.62600708007812,-104.93699645996094 -208.75,-105.125 -209.5,-105.25z"></path></g></g><g style="display: none;" transform="matrix(2.3788726329803467,-1.0591423511505127,1.0591423511505127,2.3788726329803467,816.779541015625,119.09501647949219)" opacity="1"><g opacity="1" transform="matrix(1.090000033378601,0,0,1.090000033378601,0,0)"><path fill="rgb(255,255,255)" fill-opacity="1" d=" M-209.5919952392578,-104.57599639892578 C-210.3419952392578,-104.70099639892578 -210.81500244140625,-104.45600128173828 -211.0570068359375,-104.16899871826172 C-211.70799255371094,-103.39700317382812 -211.68699645996094,-103.18699645996094 -211.375,-102.81199645996094 C-211.06300354003906,-102.43699645996094 -210.78399658203125,-102.06600189208984 -210.38099670410156,-102.2300033569336 C-209.97799682617188,-102.39399719238281 -209.2220001220703,-102.177001953125 -208.91000366210938,-102.73899841308594 C-208.59800720214844,-103.3010025024414 -208.89500427246094,-103.36399841308594 -208.83299255371094,-103.9260025024414 C-208.8159942626953,-104.24299621582031 -208.8419952392578,-104.45099639892578 -209.5919952392578,-104.57599639892578z"></path></g></g><g style="display: none;" transform="matrix(0.6000000238418579,0,0,0.6000000238418579,184.72531127929688,25.719377517700195)" opacity="1"><g opacity="1" transform="matrix(1,0,0,1,159.09300231933594,-46.43199920654297)"><path fill="rgb(255,255,255)" fill-opacity="1" d=" M0,-4.550000190734863 C2.5111451148986816,-4.550000190734863 4.550000190734863,-2.5111451148986816 4.550000190734863,0 C4.550000190734863,2.5111451148986816 2.5111451148986816,4.550000190734863 0,4.550000190734863 C-2.5111451148986816,4.550000190734863 -4.550000190734863,2.5111451148986816 -4.550000190734863,0 C-4.550000190734863,-2.5111451148986816 -2.5111451148986816,-4.550000190734863 0,-4.550000190734863z"></path></g></g><g style="display: none;" transform="matrix(0.4356829822063446,-0.41252923011779785,0.41252923011779785,0.4356829822063446,377.67034912109375,-79.21510314941406)" opacity="1"><g opacity="1" transform="matrix(1,0,0,1,-209.75,-80.25)"><path fill="rgb(112,255,129)" fill-opacity="1" d=" M4.621204766542977e-16,-7.546999931335449 C4.621204766542977e-16,-7.546999931335449 2.2177138328552246,-3.0524210929870605 2.2177138328552246,-3.0524210929870605 C2.2177138328552246,-3.0524210929870605 7.177623748779297,-2.332151174545288 7.177623748779297,-2.332151174545288 C7.177623748779297,-2.332151174545288 3.588336229324341,1.1659210920333862 3.588336229324341,1.1659210920333862 C3.588336229324341,1.1659210920333862 4.4360151290893555,6.105651378631592 4.4360151290893555,6.105651378631592 C4.4360151290893555,6.105651378631592 2.310296127921497e-16,3.7730000019073486 2.310296127921497e-16,3.7730000019073486 C2.310296127921497e-16,3.7730000019073486 -4.4360151290893555,6.105651378631592 -4.4360151290893555,6.105651378631592 C-4.4360151290893555,6.105651378631592 -3.588336229324341,1.1659210920333862 -3.588336229324341,1.1659210920333862 C-3.588336229324341,1.1659210920333862 -7.177623748779297,-2.332151174545288 -7.177623748779297,-2.332151174545288 C-7.177623748779297,-2.332151174545288 -2.2177138328552246,-3.0524210929870605 -2.2177138328552246,-3.0524210929870605 C-2.2177138328552246,-3.0524210929870605 4.621204766542977e-16,-7.546999931335449 4.621204766542977e-16,-7.546999931335449z"></path></g></g><g style="display: none;" transform="matrix(0.43800002336502075,0,0,0.43800002336502075,-2.6296534538269043,27.097938537597656)" opacity="1"><g opacity="1" transform="matrix(1,0,0,1,226.0279998779297,-88.72200012207031)"><path fill="rgb(112,255,129)" fill-opacity="1" d=" M0,-9.050000190734863 C4.99469518661499,-9.050000190734863 9.050000190734863,-4.99469518661499 9.050000190734863,0 C9.050000190734863,4.99469518661499 4.99469518661499,9.050000190734863 0,9.050000190734863 C-4.99469518661499,9.050000190734863 -9.050000190734863,4.99469518661499 -9.050000190734863,0 C-9.050000190734863,-4.99469518661499 -4.99469518661499,-9.050000190734863 0,-9.050000190734863z"></path></g></g><g style="display: none;" transform="matrix(-0.16629211604595184,-0.5764954090118408,0.5764954090118408,-0.16629211604595184,145.3306884765625,-73.15235900878906)" opacity="1"><g opacity="1" transform="matrix(1.4800000190734863,0,0,1.4800000190734863,-209.75,-80.25)"><path fill="rgb(112,255,129)" fill-opacity="1" d=" M4.621204766542977e-16,-7.546999931335449 C4.621204766542977e-16,-7.546999931335449 1.8865000009536743,-3.2675137519836426 1.8865000009536743,-3.2675137519836426 C1.8865000009536743,-3.2675137519836426 6.53589391708374,-3.7734999656677246 6.53589391708374,-3.7734999656677246 C6.53589391708374,-3.7734999656677246 3.7730000019073486,-8.377742948056596e-16 3.7730000019073486,-8.377742948056596e-16 C3.7730000019073486,-8.377742948056596e-16 6.53589391708374,3.7734999656677246 6.53589391708374,3.7734999656677246 C6.53589391708374,3.7734999656677246 1.8865000009536743,3.2675137519836426 1.8865000009536743,3.2675137519836426 C1.8865000009536743,3.2675137519836426 3.813661659959975e-15,7.546999931335449 3.813661659959975e-15,7.546999931335449 C3.813661659959975e-15,7.546999931335449 -1.8865000009536743,3.2675137519836426 -1.8865000009536743,3.2675137519836426 C-1.8865000009536743,3.2675137519836426 -6.53589391708374,3.7734999656677246 -6.53589391708374,3.7734999656677246 C-6.53589391708374,3.7734999656677246 -3.7730000019073486,3.813156404806938e-15 -3.7730000019073486,3.813156404806938e-15 C-3.7730000019073486,3.813156404806938e-15 -6.53589391708374,-3.7734999656677246 -6.53589391708374,-3.7734999656677246 C-6.53589391708374,-3.7734999656677246 -1.8865000009536743,-3.2675137519836426 -1.8865000009536743,-3.2675137519836426 C-1.8865000009536743,-3.2675137519836426 4.621204766542977e-16,-7.546999931335449 4.621204766542977e-16,-7.546999931335449z"></path></g></g><g style="display: none;" transform="matrix(-0.2680923342704773,0.8402681946754456,-0.8402681946754456,-0.2680923342704773,153.80870056152344,-48.35258865356445)" opacity="1"><g opacity="1" transform="matrix(1,0,0,1,0,0)"><path fill="rgb(255,255,255)" fill-opacity="1" d=" M102.25,-14.5 C101.25,-15 99.5,-11.75 98.5,-10.5 C97.5,-9.25 96,-3.25 96,0.25 C96,3.75 99.25,3.25 101.5,3.5 C103.75,3.75 104.5,8.5 103.75,11 C103,13.5 107.75,10.75 110,7 C110.9280014038086,5.453999996185303 108.5,3.5 108.75,-3 C108.81999969482422,-4.818999767303467 108.25,-6.25 106,-5.25 C103.75,-4.25 102,-1 102.5,-3.25 C103,-5.5 107,-7 106.25,-9.5 C105.5,-12 103.25,-14 102.25,-14.5z"></path></g></g><g style="display: none;" transform="matrix(0.12666523456573486,0.5864775776863098,-0.5864775776863098,0.12666523456573486,284.1495666503906,-12.617868423461914)" opacity="1"><g opacity="1" transform="matrix(1,0,0,1,0,0)"><path fill="rgb(255,255,255)" fill-opacity="1" d=" M132,-114 C129.75,-116.25 126,-110.5 124,-107.75 C122,-105 123,-103 120,-95.5 C117,-88 119.25,-86 123,-86.25 C126.75,-86.5 132.25,-92.5 132.5,-96.75 C132.75,-101 134.25,-111.75 132,-114z"></path></g></g><g style="display: none;" transform="matrix(-0.5982589721679688,0.6480820178985596,-0.6480820178985596,-0.5982589721679688,446.8764953613281,-28.33377456665039)" opacity="1"><g opacity="1" transform="matrix(1,0,0,1,0,0)"><path fill="rgb(112,255,129)" fill-opacity="1" d=" M102.25,-14.5 C101.25,-15 99.5,-11.75 98.5,-10.5 C97.5,-9.25 96,-3.25 96,0.25 C96,3.75 99.25,3.25 101.5,3.5 C103.75,3.75 104.5,8.5 103.75,11 C103,13.5 107.75,10.75 110,7 C110.9280014038086,5.453999996185303 108.5,3.5 108.75,-3 C108.81999969482422,-4.818999767303467 108.25,-6.25 106,-5.25 C103.75,-4.25 102,-1 102.5,-3.25 C103,-5.5 107,-7 106.25,-9.5 C105.5,-12 103.25,-14 102.25,-14.5z"></path></g></g><g style="display: none;" transform="matrix(-0.06271708011627197,-0.5967131853103638,0.5967131853103638,-0.06271708011627197,388.4207458496094,-32.15098571777344)" opacity="1"><g opacity="1" transform="matrix(1,0,0,1,-209.75,-80.25)"><path fill="rgb(255,255,255)" fill-opacity="1" d=" M4.621204766542977e-16,-7.546999931335449 C4.621204766542977e-16,-7.546999931335449 2.2177138328552246,-3.0524210929870605 2.2177138328552246,-3.0524210929870605 C2.2177138328552246,-3.0524210929870605 7.177623748779297,-2.332151174545288 7.177623748779297,-2.332151174545288 C7.177623748779297,-2.332151174545288 3.588336229324341,1.1659210920333862 3.588336229324341,1.1659210920333862 C3.588336229324341,1.1659210920333862 4.4360151290893555,6.105651378631592 4.4360151290893555,6.105651378631592 C4.4360151290893555,6.105651378631592 2.310296127921497e-16,3.7730000019073486 2.310296127921497e-16,3.7730000019073486 C2.310296127921497e-16,3.7730000019073486 -4.4360151290893555,6.105651378631592 -4.4360151290893555,6.105651378631592 C-4.4360151290893555,6.105651378631592 -3.588336229324341,1.1659210920333862 -3.588336229324341,1.1659210920333862 C-3.588336229324341,1.1659210920333862 -7.177623748779297,-2.332151174545288 -7.177623748779297,-2.332151174545288 C-7.177623748779297,-2.332151174545288 -2.2177138328552246,-3.0524210929870605 -2.2177138328552246,-3.0524210929870605 C-2.2177138328552246,-3.0524210929870605 4.621204766542977e-16,-7.546999931335449 4.621204766542977e-16,-7.546999931335449z"></path></g></g><g style="display: none;" transform="matrix(0.6000000238418579,0,0,0.6000000238418579,37.892356872558594,10.581966400146484)" opacity="1"><g opacity="1" transform="matrix(1,0,0,1,159.09300231933594,-46.43199920654297)"><path fill="rgb(255,255,255)" fill-opacity="1" d=" M0,-4.550000190734863 C2.5111451148986816,-4.550000190734863 4.550000190734863,-2.5111451148986816 4.550000190734863,0 C4.550000190734863,2.5111451148986816 2.5111451148986816,4.550000190734863 0,4.550000190734863 C-2.5111451148986816,4.550000190734863 -4.550000190734863,2.5111451148986816 -4.550000190734863,0 C-4.550000190734863,-2.5111451148986816 -2.5111451148986816,-4.550000190734863 0,-4.550000190734863z"></path></g></g><g style="display: none;" transform="matrix(0,-0.6000000238418579,0.6000000238418579,0,400.49688720703125,-69.76642608642578)" opacity="1"><g opacity="1" transform="matrix(1,0,0,1,-209.75,-80.25)"><path fill="rgb(255,255,255)" fill-opacity="1" d=" M4.621204766542977e-16,-7.546999931335449 C4.621204766542977e-16,-7.546999931335449 2.2177138328552246,-3.0524210929870605 2.2177138328552246,-3.0524210929870605 C2.2177138328552246,-3.0524210929870605 7.177623748779297,-2.332151174545288 7.177623748779297,-2.332151174545288 C7.177623748779297,-2.332151174545288 3.588336229324341,1.1659210920333862 3.588336229324341,1.1659210920333862 C3.588336229324341,1.1659210920333862 4.4360151290893555,6.105651378631592 4.4360151290893555,6.105651378631592 C4.4360151290893555,6.105651378631592 2.310296127921497e-16,3.7730000019073486 2.310296127921497e-16,3.7730000019073486 C2.310296127921497e-16,3.7730000019073486 -4.4360151290893555,6.105651378631592 -4.4360151290893555,6.105651378631592 C-4.4360151290893555,6.105651378631592 -3.588336229324341,1.1659210920333862 -3.588336229324341,1.1659210920333862 C-3.588336229324341,1.1659210920333862 -7.177623748779297,-2.332151174545288 -7.177623748779297,-2.332151174545288 C-7.177623748779297,-2.332151174545288 -2.2177138328552246,-3.0524210929870605 -2.2177138328552246,-3.0524210929870605 C-2.2177138328552246,-3.0524210929870605 4.621204766542977e-16,-7.546999931335449 4.621204766542977e-16,-7.546999931335449z"></path></g></g><g style="display: none;" transform="matrix(0.7783716320991516,0,0,0.7783716320991516,291.3619689941406,7.600244522094727)" opacity="0.3525714285722768"><g opacity="1" transform="matrix(1,0,0,1,-29.5,37.5)"><path fill="rgb(255,255,255)" fill-opacity="1" d=" M0,-23.106000900268555 C-12.76099967956543,-23.106000900268555 -23.106000900268555,-12.76099967956543 -23.106000900268555,0 C-23.106000900268555,12.76099967956543 -12.76099967956543,23.106000900268555 0,23.106000900268555 C12.76099967956543,23.106000900268555 23.106000900268555,12.76099967956543 23.106000900268555,0 C23.106000900268555,-12.76099967956543 12.76099967956543,-23.106000900268555 0,-23.106000900268555z"></path></g></g><g style="display: none;" transform="matrix(1.1019682884216309,0,0,1.1019682884216309,300.9080505371094,-4.372830390930176)" opacity="0.009483333333502202"><g opacity="1" transform="matrix(1,0,0,1,-29.5,37.5)"><path stroke-linecap="butt" stroke-linejoin="miter" fill-opacity="0" stroke-miterlimit="4" stroke="rgb(255,255,255)" stroke-opacity="1" stroke-width="4" d=" M0,-23.106000900268555 C-12.76099967956543,-23.106000900268555 -23.106000900268555,-12.76099967956543 -23.106000900268555,0 C-23.106000900268555,12.76099967956543 -12.76099967956543,23.106000900268555 0,23.106000900268555 C12.76099967956543,23.106000900268555 23.106000900268555,12.76099967956543 23.106000900268555,0 C23.106000900268555,-12.76099967956543 12.76099967956543,-23.106000900268555 0,-23.106000900268555z"></path></g></g><g style="display: block;" transform="matrix(-1.97329580783844,-1.6990940570831299,1.6990940570831299,-1.97329580783844,243.48048400878906,-334.4597473144531)" opacity="1"><g opacity="1" transform="matrix(1.090000033378601,0,0,1.090000033378601,0,0)"><path fill="rgb(112,255,129)" fill-opacity="1" d=" M-209.5,-105.25 C-210.25,-105.375 -210.31300354003906,-103.81199645996094 -210.68800354003906,-103.81199645996094 C-211.06300354003906,-103.81199645996094 -211.68699645996094,-103.18699645996094 -211.375,-102.81199645996094 C-211.06300354003906,-102.43699645996094 -210.25,-102 -209.81199645996094,-102.375 C-209.37399291992188,-102.75 -208.81199645996094,-102.3759994506836 -208.5,-102.93800354003906 C-208.18800354003906,-103.5 -208.75,-103.81300354003906 -208.68800354003906,-104.375 C-208.62600708007812,-104.93699645996094 -208.75,-105.125 -209.5,-105.25z"></path></g></g><g style="display: block;" transform="matrix(2.6040000915527344,0,0,2.6040000915527344,1213.9454345703125,452.22686767578125)" opacity="1"><g opacity="1" transform="matrix(1.090000033378601,0,0,1.090000033378601,0,0)"><path fill="rgb(112,255,129)" fill-opacity="1" d=" M-209.5919952392578,-104.57599639892578 C-210.3419952392578,-104.70099639892578 -210.81500244140625,-104.45600128173828 -211.0570068359375,-104.16899871826172 C-211.70799255371094,-103.39700317382812 -211.68699645996094,-103.18699645996094 -211.375,-102.81199645996094 C-211.06300354003906,-102.43699645996094 -210.78399658203125,-102.06600189208984 -210.38099670410156,-102.2300033569336 C-209.97799682617188,-102.39399719238281 -209.2220001220703,-102.177001953125 -208.91000366210938,-102.73899841308594 C-208.59800720214844,-103.3010025024414 -208.89500427246094,-103.36399841308594 -208.83299255371094,-103.9260025024414 C-208.8159942626953,-104.24299621582031 -208.8419952392578,-104.45099639892578 -209.5919952392578,-104.57599639892578z"></path></g></g><g style="display: block;" transform="matrix(0.8820000290870667,0,0,0.8820000290870667,377.1865539550781,28.453210830688477)" opacity="1"><g opacity="1" transform="matrix(1,0,0,1,0,0)"><path fill="rgb(255,255,255)" fill-opacity="1" d=" M102.25,-14.5 C101.25,-15 99.5,-11.75 98.5,-10.5 C97.5,-9.25 96,-3.25 96,0.25 C96,3.75 99.25,3.25 101.5,3.5 C103.75,3.75 104.5,8.5 103.75,11 C103,13.5 107.75,10.75 110,7 C110.9280014038086,5.453999996185303 108.5,3.5 108.75,-3 C108.81999969482422,-4.818999767303467 108.25,-6.25 106,-5.25 C103.75,-4.25 102,-1 102.5,-3.25 C103,-5.5 107,-7 106.25,-9.5 C105.5,-12 103.25,-14 102.25,-14.5z"></path></g></g><g style="display: block;" transform="matrix(-0.5091032981872559,0.31751197576522827,-0.31751197576522827,-0.5091032981872559,574.7421264648438,64.88578796386719)" opacity="1"><g opacity="1" transform="matrix(1,0,0,1,0,0)"><path fill="rgb(255,255,255)" fill-opacity="1" d=" M132,-114 C129.75,-116.25 126,-110.5 124,-107.75 C122,-105 123,-103 120,-95.5 C117,-88 119.25,-86 123,-86.25 C126.75,-86.5 132.25,-92.5 132.5,-96.75 C132.75,-101 134.25,-111.75 132,-114z"></path></g></g><g style="display: block;" transform="matrix(-0.5268469452857971,0.287110298871994,-0.287110298871994,-0.5268469452857971,500.42230224609375,126.84016418457031)" opacity="1"><g opacity="1" transform="matrix(1,0,0,1,0,0)"><path fill="rgb(112,255,129)" fill-opacity="1" d=" M39,-66.5 C28.351999282836914,-72.23300170898438 31.5,-64.5 32,-61.5 C32.5,-58.5 32.5,-51.5 35.5,-51.5 C38.5,-51.5 45.5,-51.5 47,-53 C48.5,-54.5 45.5,-63 39,-66.5z"></path></g></g><g style="display: block;" transform="matrix(-0.22282785177230835,-0.28275036811828613,0.28275036811828613,-0.22282785177230835,631.5554809570312,163.0956268310547)" opacity="1"><g opacity="1" transform="matrix(1,0,0,1,0,0)"><path fill="rgb(112,255,129)" fill-opacity="1" d=" M39,-66.5 C28.351999282836914,-72.23300170898438 31.5,-64.5 32,-61.5 C32.5,-58.5 32.5,-51.5 35.5,-51.5 C38.5,-51.5 45.5,-51.5 47,-53 C48.5,-54.5 45.5,-63 39,-66.5z"></path></g></g><g style="display: block;" transform="matrix(0.6000000238418579,0,0,0.6000000238418579,301.7294006347656,210.47927856445312)" opacity="1"><g opacity="1" transform="matrix(1,0,0,1,226.0279998779297,-88.72200012207031)"><path fill="rgb(112,255,129)" fill-opacity="1" d=" M0,-9.050000190734863 C4.99469518661499,-9.050000190734863 9.050000190734863,-4.99469518661499 9.050000190734863,0 C9.050000190734863,4.99469518661499 4.99469518661499,9.050000190734863 0,9.050000190734863 C-4.99469518661499,9.050000190734863 -9.050000190734863,4.99469518661499 -9.050000190734863,0 C-9.050000190734863,-4.99469518661499 -4.99469518661499,-9.050000190734863 0,-9.050000190734863z"></path></g></g><g style="display: block;" transform="matrix(-0.4451330304145813,0.40231406688690186,-0.40231406688690186,-0.4451330304145813,350.4484558105469,197.88980102539062)" opacity="1"><g opacity="1" transform="matrix(1,0,0,1,-209.75,-80.25)"><path fill="rgb(255,255,255)" fill-opacity="1" d=" M4.621204766542977e-16,-7.546999931335449 C4.621204766542977e-16,-7.546999931335449 2.2177138328552246,-3.0524210929870605 2.2177138328552246,-3.0524210929870605 C2.2177138328552246,-3.0524210929870605 7.177623748779297,-2.332151174545288 7.177623748779297,-2.332151174545288 C7.177623748779297,-2.332151174545288 3.588336229324341,1.1659210920333862 3.588336229324341,1.1659210920333862 C3.588336229324341,1.1659210920333862 4.4360151290893555,6.105651378631592 4.4360151290893555,6.105651378631592 C4.4360151290893555,6.105651378631592 2.310296127921497e-16,3.7730000019073486 2.310296127921497e-16,3.7730000019073486 C2.310296127921497e-16,3.7730000019073486 -4.4360151290893555,6.105651378631592 -4.4360151290893555,6.105651378631592 C-4.4360151290893555,6.105651378631592 -3.588336229324341,1.1659210920333862 -3.588336229324341,1.1659210920333862 C-3.588336229324341,1.1659210920333862 -7.177623748779297,-2.332151174545288 -7.177623748779297,-2.332151174545288 C-7.177623748779297,-2.332151174545288 -2.2177138328552246,-3.0524210929870605 -2.2177138328552246,-3.0524210929870605 C-2.2177138328552246,-3.0524210929870605 4.621204766542977e-16,-7.546999931335449 4.621204766542977e-16,-7.546999931335449z"></path></g></g><g style="display: block;" transform="matrix(0.03375230357050896,0.5990499258041382,-0.5990499258041382,0.03375230357050896,543.7901611328125,245.15853881835938)" opacity="1"><g opacity="1" transform="matrix(1,0,0,1,-209.75,-80.25)"><path fill="rgb(112,255,129)" fill-opacity="1" d=" M4.621204766542977e-16,-7.546999931335449 C4.621204766542977e-16,-7.546999931335449 2.2177138328552246,-3.0524210929870605 2.2177138328552246,-3.0524210929870605 C2.2177138328552246,-3.0524210929870605 7.177623748779297,-2.332151174545288 7.177623748779297,-2.332151174545288 C7.177623748779297,-2.332151174545288 3.588336229324341,1.1659210920333862 3.588336229324341,1.1659210920333862 C3.588336229324341,1.1659210920333862 4.4360151290893555,6.105651378631592 4.4360151290893555,6.105651378631592 C4.4360151290893555,6.105651378631592 2.310296127921497e-16,3.7730000019073486 2.310296127921497e-16,3.7730000019073486 C2.310296127921497e-16,3.7730000019073486 -4.4360151290893555,6.105651378631592 -4.4360151290893555,6.105651378631592 C-4.4360151290893555,6.105651378631592 -3.588336229324341,1.1659210920333862 -3.588336229324341,1.1659210920333862 C-3.588336229324341,1.1659210920333862 -7.177623748779297,-2.332151174545288 -7.177623748779297,-2.332151174545288 C-7.177623748779297,-2.332151174545288 -2.2177138328552246,-3.0524210929870605 -2.2177138328552246,-3.0524210929870605 C-2.2177138328552246,-3.0524210929870605 4.621204766542977e-16,-7.546999931335449 4.621204766542977e-16,-7.546999931335449z"></path></g></g><g style="display: block;" transform="matrix(-0.5832391381263733,-0.1408267319202423,0.1408267319202423,-0.5832391381263733,368.45361328125,52.75216293334961)" opacity="1"><g opacity="1" transform="matrix(1.4800000190734863,0,0,1.4800000190734863,-209.75,-80.25)"><path fill="rgb(255,255,255)" fill-opacity="1" d=" M4.621204766542977e-16,-7.546999931335449 C4.621204766542977e-16,-7.546999931335449 1.8865000009536743,-3.2675137519836426 1.8865000009536743,-3.2675137519836426 C1.8865000009536743,-3.2675137519836426 6.53589391708374,-3.7734999656677246 6.53589391708374,-3.7734999656677246 C6.53589391708374,-3.7734999656677246 3.7730000019073486,-8.377742948056596e-16 3.7730000019073486,-8.377742948056596e-16 C3.7730000019073486,-8.377742948056596e-16 6.53589391708374,3.7734999656677246 6.53589391708374,3.7734999656677246 C6.53589391708374,3.7734999656677246 1.8865000009536743,3.2675137519836426 1.8865000009536743,3.2675137519836426 C1.8865000009536743,3.2675137519836426 3.813661659959975e-15,7.546999931335449 3.813661659959975e-15,7.546999931335449 C3.813661659959975e-15,7.546999931335449 -1.8865000009536743,3.2675137519836426 -1.8865000009536743,3.2675137519836426 C-1.8865000009536743,3.2675137519836426 -6.53589391708374,3.7734999656677246 -6.53589391708374,3.7734999656677246 C-6.53589391708374,3.7734999656677246 -3.7730000019073486,3.813156404806938e-15 -3.7730000019073486,3.813156404806938e-15 C-3.7730000019073486,3.813156404806938e-15 -6.53589391708374,-3.7734999656677246 -6.53589391708374,-3.7734999656677246 C-6.53589391708374,-3.7734999656677246 -1.8865000009536743,-3.2675137519836426 -1.8865000009536743,-3.2675137519836426 C-1.8865000009536743,-3.2675137519836426 4.621204766542977e-16,-7.546999931335449 4.621204766542977e-16,-7.546999931335449z"></path></g></g><g style="display: block;" transform="matrix(-0.20102089643478394,-0.5653234720230103,0.5653234720230103,-0.20102089643478394,578.2293701171875,31.06462860107422)" opacity="1"><g opacity="1" transform="matrix(1.4800000190734863,0,0,1.4800000190734863,-209.75,-80.25)"><path fill="rgb(112,255,129)" fill-opacity="1" d=" M4.621204766542977e-16,-7.546999931335449 C4.621204766542977e-16,-7.546999931335449 1.8865000009536743,-3.2675137519836426 1.8865000009536743,-3.2675137519836426 C1.8865000009536743,-3.2675137519836426 6.53589391708374,-3.7734999656677246 6.53589391708374,-3.7734999656677246 C6.53589391708374,-3.7734999656677246 3.7730000019073486,-8.377742948056596e-16 3.7730000019073486,-8.377742948056596e-16 C3.7730000019073486,-8.377742948056596e-16 6.53589391708374,3.7734999656677246 6.53589391708374,3.7734999656677246 C6.53589391708374,3.7734999656677246 1.8865000009536743,3.2675137519836426 1.8865000009536743,3.2675137519836426 C1.8865000009536743,3.2675137519836426 3.813661659959975e-15,7.546999931335449 3.813661659959975e-15,7.546999931335449 C3.813661659959975e-15,7.546999931335449 -1.8865000009536743,3.2675137519836426 -1.8865000009536743,3.2675137519836426 C-1.8865000009536743,3.2675137519836426 -6.53589391708374,3.7734999656677246 -6.53589391708374,3.7734999656677246 C-6.53589391708374,3.7734999656677246 -3.7730000019073486,3.813156404806938e-15 -3.7730000019073486,3.813156404806938e-15 C-3.7730000019073486,3.813156404806938e-15 -6.53589391708374,-3.7734999656677246 -6.53589391708374,-3.7734999656677246 C-6.53589391708374,-3.7734999656677246 -1.8865000009536743,-3.2675137519836426 -1.8865000009536743,-3.2675137519836426 C-1.8865000009536743,-3.2675137519836426 4.621204766542977e-16,-7.546999931335449 4.621204766542977e-16,-7.546999931335449z"></path></g></g><g style="display: block;" transform="matrix(-0.9543692469596863,2.4228076934814453,-2.4228076934814453,-0.9543692469596863,263.4764709472656,578.6000366210938)" opacity="1"><g opacity="1" transform="matrix(1.090000033378601,0,0,1.090000033378601,0,0)"><path fill="rgb(255,255,255)" fill-opacity="1" d=" M-209.5,-105.25 C-210.25,-105.375 -210.31300354003906,-103.81199645996094 -210.68800354003906,-103.81199645996094 C-211.06300354003906,-103.81199645996094 -211.68699645996094,-103.18699645996094 -211.375,-102.81199645996094 C-211.06300354003906,-102.43699645996094 -210.25,-102 -209.81199645996094,-102.375 C-209.37399291992188,-102.75 -208.81199645996094,-102.3759994506836 -208.5,-102.93800354003906 C-208.18800354003906,-103.5 -208.75,-103.81300354003906 -208.68800354003906,-104.375 C-208.62600708007812,-104.93699645996094 -208.75,-105.125 -209.5,-105.25z"></path></g></g><g style="display: block;" transform="matrix(2.3788726329803467,-1.0591423511505127,1.0591423511505127,2.3788726329803467,1047.578125,247.771728515625)" opacity="1"><g opacity="1" transform="matrix(1.090000033378601,0,0,1.090000033378601,0,0)"><path fill="rgb(255,255,255)" fill-opacity="1" d=" M-209.5919952392578,-104.57599639892578 C-210.3419952392578,-104.70099639892578 -210.81500244140625,-104.45600128173828 -211.0570068359375,-104.16899871826172 C-211.70799255371094,-103.39700317382812 -211.68699645996094,-103.18699645996094 -211.375,-102.81199645996094 C-211.06300354003906,-102.43699645996094 -210.78399658203125,-102.06600189208984 -210.38099670410156,-102.2300033569336 C-209.97799682617188,-102.39399719238281 -209.2220001220703,-102.177001953125 -208.91000366210938,-102.73899841308594 C-208.59800720214844,-103.3010025024414 -208.89500427246094,-103.36399841308594 -208.83299255371094,-103.9260025024414 C-208.8159942626953,-104.24299621582031 -208.8419952392578,-104.45099639892578 -209.5919952392578,-104.57599639892578z"></path></g></g><g style="display: block;" transform="matrix(0.6000000238418579,0,0,0.6000000238418579,459.1090087890625,170.35447692871094)" opacity="1"><g opacity="1" transform="matrix(1,0,0,1,159.09300231933594,-46.43199920654297)"><path fill="rgb(255,255,255)" fill-opacity="1" d=" M0,-4.550000190734863 C2.5111451148986816,-4.550000190734863 4.550000190734863,-2.5111451148986816 4.550000190734863,0 C4.550000190734863,2.5111451148986816 2.5111451148986816,4.550000190734863 0,4.550000190734863 C-2.5111451148986816,4.550000190734863 -4.550000190734863,2.5111451148986816 -4.550000190734863,0 C-4.550000190734863,-2.5111451148986816 -2.5111451148986816,-4.550000190734863 0,-4.550000190734863z"></path></g></g><g style="display: block;" transform="matrix(0.5964512825012207,-0.06516054272651672,0.06516054272651672,0.5964512825012207,651.7852172851562,154.55923461914062)" opacity="1"><g opacity="1" transform="matrix(1,0,0,1,-209.75,-80.25)"><path fill="rgb(112,255,129)" fill-opacity="1" d=" M4.621204766542977e-16,-7.546999931335449 C4.621204766542977e-16,-7.546999931335449 2.2177138328552246,-3.0524210929870605 2.2177138328552246,-3.0524210929870605 C2.2177138328552246,-3.0524210929870605 7.177623748779297,-2.332151174545288 7.177623748779297,-2.332151174545288 C7.177623748779297,-2.332151174545288 3.588336229324341,1.1659210920333862 3.588336229324341,1.1659210920333862 C3.588336229324341,1.1659210920333862 4.4360151290893555,6.105651378631592 4.4360151290893555,6.105651378631592 C4.4360151290893555,6.105651378631592 2.310296127921497e-16,3.7730000019073486 2.310296127921497e-16,3.7730000019073486 C2.310296127921497e-16,3.7730000019073486 -4.4360151290893555,6.105651378631592 -4.4360151290893555,6.105651378631592 C-4.4360151290893555,6.105651378631592 -3.588336229324341,1.1659210920333862 -3.588336229324341,1.1659210920333862 C-3.588336229324341,1.1659210920333862 -7.177623748779297,-2.332151174545288 -7.177623748779297,-2.332151174545288 C-7.177623748779297,-2.332151174545288 -2.2177138328552246,-3.0524210929870605 -2.2177138328552246,-3.0524210929870605 C-2.2177138328552246,-3.0524210929870605 4.621204766542977e-16,-7.546999931335449 4.621204766542977e-16,-7.546999931335449z"></path></g></g><g style="display: block;" transform="matrix(0.43800002336502075,0,0,0.43800002336502075,186.6826171875,159.39207458496094)" opacity="1"><g opacity="1" transform="matrix(1,0,0,1,226.0279998779297,-88.72200012207031)"><path fill="rgb(112,255,129)" fill-opacity="1" d=" M0,-9.050000190734863 C4.99469518661499,-9.050000190734863 9.050000190734863,-4.99469518661499 9.050000190734863,0 C9.050000190734863,4.99469518661499 4.99469518661499,9.050000190734863 0,9.050000190734863 C-4.99469518661499,9.050000190734863 -9.050000190734863,4.99469518661499 -9.050000190734863,0 C-9.050000190734863,-4.99469518661499 -4.99469518661499,-9.050000190734863 0,-9.050000190734863z"></path></g></g><g style="display: block;" transform="matrix(0.5644953846931458,-0.20333464443683624,0.20333464443683624,0.5644953846931458,470.8063049316406,174.24703979492188)" opacity="1"><g opacity="1" transform="matrix(1.4800000190734863,0,0,1.4800000190734863,-209.75,-80.25)"><path fill="rgb(112,255,129)" fill-opacity="1" d=" M4.621204766542977e-16,-7.546999931335449 C4.621204766542977e-16,-7.546999931335449 1.8865000009536743,-3.2675137519836426 1.8865000009536743,-3.2675137519836426 C1.8865000009536743,-3.2675137519836426 6.53589391708374,-3.7734999656677246 6.53589391708374,-3.7734999656677246 C6.53589391708374,-3.7734999656677246 3.7730000019073486,-8.377742948056596e-16 3.7730000019073486,-8.377742948056596e-16 C3.7730000019073486,-8.377742948056596e-16 6.53589391708374,3.7734999656677246 6.53589391708374,3.7734999656677246 C6.53589391708374,3.7734999656677246 1.8865000009536743,3.2675137519836426 1.8865000009536743,3.2675137519836426 C1.8865000009536743,3.2675137519836426 3.813661659959975e-15,7.546999931335449 3.813661659959975e-15,7.546999931335449 C3.813661659959975e-15,7.546999931335449 -1.8865000009536743,3.2675137519836426 -1.8865000009536743,3.2675137519836426 C-1.8865000009536743,3.2675137519836426 -6.53589391708374,3.7734999656677246 -6.53589391708374,3.7734999656677246 C-6.53589391708374,3.7734999656677246 -3.7730000019073486,3.813156404806938e-15 -3.7730000019073486,3.813156404806938e-15 C-3.7730000019073486,3.813156404806938e-15 -6.53589391708374,-3.7734999656677246 -6.53589391708374,-3.7734999656677246 C-6.53589391708374,-3.7734999656677246 -1.8865000009536743,-3.2675137519836426 -1.8865000009536743,-3.2675137519836426 C-1.8865000009536743,-3.2675137519836426 4.621204766542977e-16,-7.546999931335449 4.621204766542977e-16,-7.546999931335449z"></path></g></g><g style="display: block;" transform="matrix(-0.8158676624298096,0.3350881338119507,-0.3350881338119507,-0.8158676624298096,423.77276611328125,131.91603088378906)" opacity="1"><g opacity="1" transform="matrix(1,0,0,1,0,0)"><path fill="rgb(255,255,255)" fill-opacity="1" d=" M102.25,-14.5 C101.25,-15 99.5,-11.75 98.5,-10.5 C97.5,-9.25 96,-3.25 96,0.25 C96,3.75 99.25,3.25 101.5,3.5 C103.75,3.75 104.5,8.5 103.75,11 C103,13.5 107.75,10.75 110,7 C110.9280014038086,5.453999996185303 108.5,3.5 108.75,-3 C108.81999969482422,-4.818999767303467 108.25,-6.25 106,-5.25 C103.75,-4.25 102,-1 102.5,-3.25 C103,-5.5 107,-7 106.25,-9.5 C105.5,-12 103.25,-14 102.25,-14.5z"></path></g></g><g style="display: block;" transform="matrix(-0.3235623836517334,0.505279541015625,-0.505279541015625,-0.3235623836517334,659.1463012695312,71.2457504272461)" opacity="1"><g opacity="1" transform="matrix(1,0,0,1,0,0)"><path fill="rgb(255,255,255)" fill-opacity="1" d=" M132,-114 C129.75,-116.25 126,-110.5 124,-107.75 C122,-105 123,-103 120,-95.5 C117,-88 119.25,-86 123,-86.25 C126.75,-86.5 132.25,-92.5 132.5,-96.75 C132.75,-101 134.25,-111.75 132,-114z"></path></g></g><g style="display: block;" transform="matrix(-0.8267310261726379,-0.3073108494281769,0.3073108494281769,-0.8267310261726379,775.4551391601562,193.9670867919922)" opacity="1"><g opacity="1" transform="matrix(1,0,0,1,0,0)"><path fill="rgb(112,255,129)" fill-opacity="1" d=" M102.25,-14.5 C101.25,-15 99.5,-11.75 98.5,-10.5 C97.5,-9.25 96,-3.25 96,0.25 C96,3.75 99.25,3.25 101.5,3.5 C103.75,3.75 104.5,8.5 103.75,11 C103,13.5 107.75,10.75 110,7 C110.9280014038086,5.453999996185303 108.5,3.5 108.75,-3 C108.81999969482422,-4.818999767303467 108.25,-6.25 106,-5.25 C103.75,-4.25 102,-1 102.5,-3.25 C103,-5.5 107,-7 106.25,-9.5 C105.5,-12 103.25,-14 102.25,-14.5z"></path></g></g><g style="display: block;" transform="matrix(-0.06271708011627197,-0.5967131853103638,0.5967131853103638,-0.06271708011627197,684.2605590820312,48.656558990478516)" opacity="1"><g opacity="1" transform="matrix(1,0,0,1,-209.75,-80.25)"><path fill="rgb(255,255,255)" fill-opacity="1" d=" M4.621204766542977e-16,-7.546999931335449 C4.621204766542977e-16,-7.546999931335449 2.2177138328552246,-3.0524210929870605 2.2177138328552246,-3.0524210929870605 C2.2177138328552246,-3.0524210929870605 7.177623748779297,-2.332151174545288 7.177623748779297,-2.332151174545288 C7.177623748779297,-2.332151174545288 3.588336229324341,1.1659210920333862 3.588336229324341,1.1659210920333862 C3.588336229324341,1.1659210920333862 4.4360151290893555,6.105651378631592 4.4360151290893555,6.105651378631592 C4.4360151290893555,6.105651378631592 2.310296127921497e-16,3.7730000019073486 2.310296127921497e-16,3.7730000019073486 C2.310296127921497e-16,3.7730000019073486 -4.4360151290893555,6.105651378631592 -4.4360151290893555,6.105651378631592 C-4.4360151290893555,6.105651378631592 -3.588336229324341,1.1659210920333862 -3.588336229324341,1.1659210920333862 C-3.588336229324341,1.1659210920333862 -7.177623748779297,-2.332151174545288 -7.177623748779297,-2.332151174545288 C-7.177623748779297,-2.332151174545288 -2.2177138328552246,-3.0524210929870605 -2.2177138328552246,-3.0524210929870605 C-2.2177138328552246,-3.0524210929870605 4.621204766542977e-16,-7.546999931335449 4.621204766542977e-16,-7.546999931335449z"></path></g></g><g style="display: block;" transform="matrix(0.6000000238418579,0,0,0.6000000238418579,248.2786407470703,127.2730941772461)" opacity="1"><g opacity="1" transform="matrix(1,0,0,1,159.09300231933594,-46.43199920654297)"><path fill="rgb(255,255,255)" fill-opacity="1" d=" M0,-4.550000190734863 C2.5111451148986816,-4.550000190734863 4.550000190734863,-2.5111451148986816 4.550000190734863,0 C4.550000190734863,2.5111451148986816 2.5111451148986816,4.550000190734863 0,4.550000190734863 C-2.5111451148986816,4.550000190734863 -4.550000190734863,2.5111451148986816 -4.550000190734863,0 C-4.550000190734863,-2.5111451148986816 -2.5111451148986816,-4.550000190734863 0,-4.550000190734863z"></path></g></g><g style="display: block;" transform="matrix(0,-0.6000000238418579,0.6000000238418579,0,698.9820556640625,15.82558822631836)" opacity="1"><g opacity="1" transform="matrix(1,0,0,1,-209.75,-80.25)"><path fill="rgb(255,255,255)" fill-opacity="1" d=" M4.621204766542977e-16,-7.546999931335449 C4.621204766542977e-16,-7.546999931335449 2.2177138328552246,-3.0524210929870605 2.2177138328552246,-3.0524210929870605 C2.2177138328552246,-3.0524210929870605 7.177623748779297,-2.332151174545288 7.177623748779297,-2.332151174545288 C7.177623748779297,-2.332151174545288 3.588336229324341,1.1659210920333862 3.588336229324341,1.1659210920333862 C3.588336229324341,1.1659210920333862 4.4360151290893555,6.105651378631592 4.4360151290893555,6.105651378631592 C4.4360151290893555,6.105651378631592 2.310296127921497e-16,3.7730000019073486 2.310296127921497e-16,3.7730000019073486 C2.310296127921497e-16,3.7730000019073486 -4.4360151290893555,6.105651378631592 -4.4360151290893555,6.105651378631592 C-4.4360151290893555,6.105651378631592 -3.588336229324341,1.1659210920333862 -3.588336229324341,1.1659210920333862 C-3.588336229324341,1.1659210920333862 -7.177623748779297,-2.332151174545288 -7.177623748779297,-2.332151174545288 C-7.177623748779297,-2.332151174545288 -2.2177138328552246,-3.0524210929870605 -2.2177138328552246,-3.0524210929870605 C-2.2177138328552246,-3.0524210929870605 4.621204766542977e-16,-7.546999931335449 4.621204766542977e-16,-7.546999931335449z"></path></g></g><g style="display: none;" transform="matrix(0.8637844324111938,0,0,0.8637844324111938,562.8816528320312,6.439971923828125)" opacity="0.15921428571513319"><g opacity="1" transform="matrix(1,0,0,1,-29.5,37.5)"><path fill="rgb(255,255,255)" fill-opacity="1" d=" M0,-23.106000900268555 C-12.76099967956543,-23.106000900268555 -23.106000900268555,-12.76099967956543 -23.106000900268555,0 C-23.106000900268555,12.76099967956543 -12.76099967956543,23.106000900268555 0,23.106000900268555 C12.76099967956543,23.106000900268555 23.106000900268555,12.76099967956543 23.106000900268555,0 C23.106000900268555,-12.76099967956543 12.76099967956543,-23.106000900268555 0,-23.106000900268555z"></path></g></g><g style="display: none;" transform="matrix(1.0908077955245972,0,0,1.0908077955245972,569.5787963867188,-1.9598909616470337)" opacity="0.04299166666699733"><g opacity="1" transform="matrix(1,0,0,1,-29.5,37.5)"><path stroke-linecap="butt" stroke-linejoin="miter" fill-opacity="0" stroke-miterlimit="4" stroke="rgb(255,255,255)" stroke-opacity="1" stroke-width="4" d=" M0,-23.106000900268555 C-12.76099967956543,-23.106000900268555 -23.106000900268555,-12.76099967956543 -23.106000900268555,0 C-23.106000900268555,12.76099967956543 -12.76099967956543,23.106000900268555 0,23.106000900268555 C12.76099967956543,23.106000900268555 23.106000900268555,12.76099967956543 23.106000900268555,0 C23.106000900268555,-12.76099967956543 12.76099967956543,-23.106000900268555 0,-23.106000900268555z"></path></g></g><g style="display: block;" transform="matrix(-0.8543702960014343,-2.4598512649536133,2.4598512649536133,-0.8543702960014343,398.45172119140625,-114.767822265625)" opacity="1"><g opacity="1" transform="matrix(1.090000033378601,0,0,1.090000033378601,0,0)"><path fill="rgb(112,255,129)" fill-opacity="1" d=" M-209.5,-105.25 C-210.25,-105.375 -210.31300354003906,-103.81199645996094 -210.68800354003906,-103.81199645996094 C-211.06300354003906,-103.81199645996094 -211.68699645996094,-103.18699645996094 -211.375,-102.81199645996094 C-211.06300354003906,-102.43699645996094 -210.25,-102 -209.81199645996094,-102.375 C-209.37399291992188,-102.75 -208.81199645996094,-102.3759994506836 -208.5,-102.93800354003906 C-208.18800354003906,-103.5 -208.75,-103.81300354003906 -208.68800354003906,-104.375 C-208.62600708007812,-104.93699645996094 -208.75,-105.125 -209.5,-105.25z"></path></g></g><g style="display: block;" transform="matrix(2.6040000915527344,0,0,2.6040000915527344,1041.2650146484375,703.797119140625)" opacity="1"><g opacity="1" transform="matrix(1.090000033378601,0,0,1.090000033378601,0,0)"><path fill="rgb(112,255,129)" fill-opacity="1" d=" M-209.5919952392578,-104.57599639892578 C-210.3419952392578,-104.70099639892578 -210.81500244140625,-104.45600128173828 -211.0570068359375,-104.16899871826172 C-211.70799255371094,-103.39700317382812 -211.68699645996094,-103.18699645996094 -211.375,-102.81199645996094 C-211.06300354003906,-102.43699645996094 -210.78399658203125,-102.06600189208984 -210.38099670410156,-102.2300033569336 C-209.97799682617188,-102.39399719238281 -209.2220001220703,-102.177001953125 -208.91000366210938,-102.73899841308594 C-208.59800720214844,-103.3010025024414 -208.89500427246094,-103.36399841308594 -208.83299255371094,-103.9260025024414 C-208.8159942626953,-104.24299621582031 -208.8419952392578,-104.45099639892578 -209.5919952392578,-104.57599639892578z"></path></g></g><g style="display: block;" transform="matrix(0.8820000290870667,0,0,0.8820000290870667,184.7738494873047,284.0681457519531)" opacity="1"><g opacity="1" transform="matrix(1,0,0,1,0,0)"><path fill="rgb(255,255,255)" fill-opacity="1" d=" M102.25,-14.5 C101.25,-15 99.5,-11.75 98.5,-10.5 C97.5,-9.25 96,-3.25 96,0.25 C96,3.75 99.25,3.25 101.5,3.5 C103.75,3.75 104.5,8.5 103.75,11 C103,13.5 107.75,10.75 110,7 C110.9280014038086,5.453999996185303 108.5,3.5 108.75,-3 C108.81999969482422,-4.818999767303467 108.25,-6.25 106,-5.25 C103.75,-4.25 102,-1 102.5,-3.25 C103,-5.5 107,-7 106.25,-9.5 C105.5,-12 103.25,-14 102.25,-14.5z"></path></g></g><g style="display: block;" transform="matrix(-0.5975380539894104,0.05429800972342491,-0.05429800972342491,-0.5975380539894104,428.5585021972656,349.1087341308594)" opacity="1"><g opacity="1" transform="matrix(1,0,0,1,0,0)"><path fill="rgb(255,255,255)" fill-opacity="1" d=" M132,-114 C129.75,-116.25 126,-110.5 124,-107.75 C122,-105 123,-103 120,-95.5 C117,-88 119.25,-86 123,-86.25 C126.75,-86.5 132.25,-92.5 132.5,-96.75 C132.75,-101 134.25,-111.75 132,-114z"></path></g></g><g style="display: block;" transform="matrix(-0.5997218489646912,-0.018267981708049774,0.018267981708049774,-0.5997218489646912,331.7978210449219,391.0625915527344)" opacity="1"><g opacity="1" transform="matrix(1,0,0,1,0,0)"><path fill="rgb(112,255,129)" fill-opacity="1" d=" M39,-66.5 C28.351999282836914,-72.23300170898438 31.5,-64.5 32,-61.5 C32.5,-58.5 32.5,-51.5 35.5,-51.5 C38.5,-51.5 45.5,-51.5 47,-53 C48.5,-54.5 45.5,-63 39,-66.5z"></path></g></g><g style="display: block;" transform="matrix(-0.06028876081109047,-0.35491588711738586,0.35491588711738586,-0.06028876081109047,454.32861328125,424.714111328125)" opacity="1"><g opacity="1" transform="matrix(1,0,0,1,0,0)"><path fill="rgb(112,255,129)" fill-opacity="1" d=" M39,-66.5 C28.351999282836914,-72.23300170898438 31.5,-64.5 32,-61.5 C32.5,-58.5 32.5,-51.5 35.5,-51.5 C38.5,-51.5 45.5,-51.5 47,-53 C48.5,-54.5 45.5,-63 39,-66.5z"></path></g></g><g style="display: block;" transform="matrix(0.6000000238418579,0,0,0.6000000238418579,115.4639663696289,448.1273193359375)" opacity="1"><g opacity="1" transform="matrix(1,0,0,1,226.0279998779297,-88.72200012207031)"><path fill="rgb(112,255,129)" fill-opacity="1" d=" M0,-9.050000190734863 C4.99469518661499,-9.050000190734863 9.050000190734863,-4.99469518661499 9.050000190734863,0 C9.050000190734863,4.99469518661499 4.99469518661499,9.050000190734863 0,9.050000190734863 C-4.99469518661499,9.050000190734863 -9.050000190734863,4.99469518661499 -9.050000190734863,0 C-9.050000190734863,-4.99469518661499 -4.99469518661499,-9.050000190734863 0,-9.050000190734863z"></path></g></g><g style="display: block;" transform="matrix(-0.5809345245361328,0.1500503271818161,-0.1500503271818161,-0.5809345245361328,153.8963165283203,377.2184143066406)" opacity="1"><g opacity="1" transform="matrix(1,0,0,1,-209.75,-80.25)"><path fill="rgb(255,255,255)" fill-opacity="1" d=" M4.621204766542977e-16,-7.546999931335449 C4.621204766542977e-16,-7.546999931335449 2.2177138328552246,-3.0524210929870605 2.2177138328552246,-3.0524210929870605 C2.2177138328552246,-3.0524210929870605 7.177623748779297,-2.332151174545288 7.177623748779297,-2.332151174545288 C7.177623748779297,-2.332151174545288 3.588336229324341,1.1659210920333862 3.588336229324341,1.1659210920333862 C3.588336229324341,1.1659210920333862 4.4360151290893555,6.105651378631592 4.4360151290893555,6.105651378631592 C4.4360151290893555,6.105651378631592 2.310296127921497e-16,3.7730000019073486 2.310296127921497e-16,3.7730000019073486 C2.310296127921497e-16,3.7730000019073486 -4.4360151290893555,6.105651378631592 -4.4360151290893555,6.105651378631592 C-4.4360151290893555,6.105651378631592 -3.588336229324341,1.1659210920333862 -3.588336229324341,1.1659210920333862 C-3.588336229324341,1.1659210920333862 -7.177623748779297,-2.332151174545288 -7.177623748779297,-2.332151174545288 C-7.177623748779297,-2.332151174545288 -2.2177138328552246,-3.0524210929870605 -2.2177138328552246,-3.0524210929870605 C-2.2177138328552246,-3.0524210929870605 4.621204766542977e-16,-7.546999931335449 4.621204766542977e-16,-7.546999931335449z"></path></g></g><g style="display: block;" transform="matrix(-0.33021724224090576,0.5009556412696838,-0.5009556412696838,-0.33021724224090576,297.5110168457031,438.9126281738281)" opacity="1"><g opacity="1" transform="matrix(1,0,0,1,-209.75,-80.25)"><path fill="rgb(112,255,129)" fill-opacity="1" d=" M4.621204766542977e-16,-7.546999931335449 C4.621204766542977e-16,-7.546999931335449 2.2177138328552246,-3.0524210929870605 2.2177138328552246,-3.0524210929870605 C2.2177138328552246,-3.0524210929870605 7.177623748779297,-2.332151174545288 7.177623748779297,-2.332151174545288 C7.177623748779297,-2.332151174545288 3.588336229324341,1.1659210920333862 3.588336229324341,1.1659210920333862 C3.588336229324341,1.1659210920333862 4.4360151290893555,6.105651378631592 4.4360151290893555,6.105651378631592 C4.4360151290893555,6.105651378631592 2.310296127921497e-16,3.7730000019073486 2.310296127921497e-16,3.7730000019073486 C2.310296127921497e-16,3.7730000019073486 -4.4360151290893555,6.105651378631592 -4.4360151290893555,6.105651378631592 C-4.4360151290893555,6.105651378631592 -3.588336229324341,1.1659210920333862 -3.588336229324341,1.1659210920333862 C-3.588336229324341,1.1659210920333862 -7.177623748779297,-2.332151174545288 -7.177623748779297,-2.332151174545288 C-7.177623748779297,-2.332151174545288 -2.2177138328552246,-3.0524210929870605 -2.2177138328552246,-3.0524210929870605 C-2.2177138328552246,-3.0524210929870605 4.621204766542977e-16,-7.546999931335449 4.621204766542977e-16,-7.546999931335449z"></path></g></g><g style="display: block;" transform="matrix(-0.3995972275733948,-0.44757354259490967,0.44757354259490967,-0.3995972275733948,243.4441375732422,242.8799285888672)" opacity="1"><g opacity="1" transform="matrix(1.4800000190734863,0,0,1.4800000190734863,-209.75,-80.25)"><path fill="rgb(255,255,255)" fill-opacity="1" d=" M4.621204766542977e-16,-7.546999931335449 C4.621204766542977e-16,-7.546999931335449 1.8865000009536743,-3.2675137519836426 1.8865000009536743,-3.2675137519836426 C1.8865000009536743,-3.2675137519836426 6.53589391708374,-3.7734999656677246 6.53589391708374,-3.7734999656677246 C6.53589391708374,-3.7734999656677246 3.7730000019073486,-8.377742948056596e-16 3.7730000019073486,-8.377742948056596e-16 C3.7730000019073486,-8.377742948056596e-16 6.53589391708374,3.7734999656677246 6.53589391708374,3.7734999656677246 C6.53589391708374,3.7734999656677246 1.8865000009536743,3.2675137519836426 1.8865000009536743,3.2675137519836426 C1.8865000009536743,3.2675137519836426 3.813661659959975e-15,7.546999931335449 3.813661659959975e-15,7.546999931335449 C3.813661659959975e-15,7.546999931335449 -1.8865000009536743,3.2675137519836426 -1.8865000009536743,3.2675137519836426 C-1.8865000009536743,3.2675137519836426 -6.53589391708374,3.7734999656677246 -6.53589391708374,3.7734999656677246 C-6.53589391708374,3.7734999656677246 -3.7730000019073486,3.813156404806938e-15 -3.7730000019073486,3.813156404806938e-15 C-3.7730000019073486,3.813156404806938e-15 -6.53589391708374,-3.7734999656677246 -6.53589391708374,-3.7734999656677246 C-6.53589391708374,-3.7734999656677246 -1.8865000009536743,-3.2675137519836426 -1.8865000009536743,-3.2675137519836426 C-1.8865000009536743,-3.2675137519836426 4.621204766542977e-16,-7.546999931335449 4.621204766542977e-16,-7.546999931335449z"></path></g></g><g style="display: block;" transform="matrix(0.04342431202530861,-0.5984265804290771,0.5984265804290771,0.04342431202530861,452.6144714355469,280.9476623535156)" opacity="1"><g opacity="1" transform="matrix(1.4800000190734863,0,0,1.4800000190734863,-209.75,-80.25)"><path fill="rgb(112,255,129)" fill-opacity="1" d=" M4.621204766542977e-16,-7.546999931335449 C4.621204766542977e-16,-7.546999931335449 1.8865000009536743,-3.2675137519836426 1.8865000009536743,-3.2675137519836426 C1.8865000009536743,-3.2675137519836426 6.53589391708374,-3.7734999656677246 6.53589391708374,-3.7734999656677246 C6.53589391708374,-3.7734999656677246 3.7730000019073486,-8.377742948056596e-16 3.7730000019073486,-8.377742948056596e-16 C3.7730000019073486,-8.377742948056596e-16 6.53589391708374,3.7734999656677246 6.53589391708374,3.7734999656677246 C6.53589391708374,3.7734999656677246 1.8865000009536743,3.2675137519836426 1.8865000009536743,3.2675137519836426 C1.8865000009536743,3.2675137519836426 3.813661659959975e-15,7.546999931335449 3.813661659959975e-15,7.546999931335449 C3.813661659959975e-15,7.546999931335449 -1.8865000009536743,3.2675137519836426 -1.8865000009536743,3.2675137519836426 C-1.8865000009536743,3.2675137519836426 -6.53589391708374,3.7734999656677246 -6.53589391708374,3.7734999656677246 C-6.53589391708374,3.7734999656677246 -3.7730000019073486,3.813156404806938e-15 -3.7730000019073486,3.813156404806938e-15 C-3.7730000019073486,3.813156404806938e-15 -6.53589391708374,-3.7734999656677246 -6.53589391708374,-3.7734999656677246 C-6.53589391708374,-3.7734999656677246 -1.8865000009536743,-3.2675137519836426 -1.8865000009536743,-3.2675137519836426 C-1.8865000009536743,-3.2675137519836426 4.621204766542977e-16,-7.546999931335449 4.621204766542977e-16,-7.546999931335449z"></path></g></g><g style="display: block;" transform="matrix(-0.9543692469596863,2.4228076934814453,-2.4228076934814453,-0.9543692469596863,99.8095474243164,821.43017578125)" opacity="1"><g opacity="1" transform="matrix(1.090000033378601,0,0,1.090000033378601,0,0)"><path fill="rgb(255,255,255)" fill-opacity="1" d=" M-209.5,-105.25 C-210.25,-105.375 -210.31300354003906,-103.81199645996094 -210.68800354003906,-103.81199645996094 C-211.06300354003906,-103.81199645996094 -211.68699645996094,-103.18699645996094 -211.375,-102.81199645996094 C-211.06300354003906,-102.43699645996094 -210.25,-102 -209.81199645996094,-102.375 C-209.37399291992188,-102.75 -208.81199645996094,-102.3759994506836 -208.5,-102.93800354003906 C-208.18800354003906,-103.5 -208.75,-103.81300354003906 -208.68800354003906,-104.375 C-208.62600708007812,-104.93699645996094 -208.75,-105.125 -209.5,-105.25z"></path></g></g><g style="display: block;" transform="matrix(2.3788726329803467,-1.0591423511505127,1.0591423511505127,2.3788726329803467,852.7993774414062,475.9195861816406)" opacity="1"><g opacity="1" transform="matrix(1.090000033378601,0,0,1.090000033378601,0,0)"><path fill="rgb(255,255,255)" fill-opacity="1" d=" M-209.5919952392578,-104.57599639892578 C-210.3419952392578,-104.70099639892578 -210.81500244140625,-104.45600128173828 -211.0570068359375,-104.16899871826172 C-211.70799255371094,-103.39700317382812 -211.68699645996094,-103.18699645996094 -211.375,-102.81199645996094 C-211.06300354003906,-102.43699645996094 -210.78399658203125,-102.06600189208984 -210.38099670410156,-102.2300033569336 C-209.97799682617188,-102.39399719238281 -209.2220001220703,-102.177001953125 -208.91000366210938,-102.73899841308594 C-208.59800720214844,-103.3010025024414 -208.89500427246094,-103.36399841308594 -208.83299255371094,-103.9260025024414 C-208.8159942626953,-104.24299621582031 -208.8419952392578,-104.45099639892578 -209.5919952392578,-104.57599639892578z"></path></g></g><g style="display: block;" transform="matrix(0.6000000238418579,0,0,0.6000000238418579,278.1507263183594,414.3499450683594)" opacity="1"><g opacity="1" transform="matrix(1,0,0,1,159.09300231933594,-46.43199920654297)"><path fill="rgb(255,255,255)" fill-opacity="1" d=" M0,-4.550000190734863 C2.5111451148986816,-4.550000190734863 4.550000190734863,-2.5111451148986816 4.550000190734863,0 C4.550000190734863,2.5111451148986816 2.5111451148986816,4.550000190734863 0,4.550000190734863 C-2.5111451148986816,4.550000190734863 -4.550000190734863,2.5111451148986816 -4.550000190734863,0 C-4.550000190734863,-2.5111451148986816 -2.5111451148986816,-4.550000190734863 0,-4.550000190734863z"></path></g></g><g style="display: block;" transform="matrix(0.5874301791191101,0.12217134982347488,-0.12217134982347488,0.5874301791191101,452.22882080078125,438.7088317871094)" opacity="1"><g opacity="1" transform="matrix(1,0,0,1,-209.75,-80.25)"><path fill="rgb(112,255,129)" fill-opacity="1" d=" M4.621204766542977e-16,-7.546999931335449 C4.621204766542977e-16,-7.546999931335449 2.2177138328552246,-3.0524210929870605 2.2177138328552246,-3.0524210929870605 C2.2177138328552246,-3.0524210929870605 7.177623748779297,-2.332151174545288 7.177623748779297,-2.332151174545288 C7.177623748779297,-2.332151174545288 3.588336229324341,1.1659210920333862 3.588336229324341,1.1659210920333862 C3.588336229324341,1.1659210920333862 4.4360151290893555,6.105651378631592 4.4360151290893555,6.105651378631592 C4.4360151290893555,6.105651378631592 2.310296127921497e-16,3.7730000019073486 2.310296127921497e-16,3.7730000019073486 C2.310296127921497e-16,3.7730000019073486 -4.4360151290893555,6.105651378631592 -4.4360151290893555,6.105651378631592 C-4.4360151290893555,6.105651378631592 -3.588336229324341,1.1659210920333862 -3.588336229324341,1.1659210920333862 C-3.588336229324341,1.1659210920333862 -7.177623748779297,-2.332151174545288 -7.177623748779297,-2.332151174545288 C-7.177623748779297,-2.332151174545288 -2.2177138328552246,-3.0524210929870605 -2.2177138328552246,-3.0524210929870605 C-2.2177138328552246,-3.0524210929870605 4.621204766542977e-16,-7.546999931335449 4.621204766542977e-16,-7.546999931335449z"></path></g></g><g style="display: block;" transform="matrix(0.43800002336502075,0,0,0.43800002336502075,-24.70781898498535,402.71453857421875)" opacity="1"><g opacity="1" transform="matrix(1,0,0,1,226.0279998779297,-88.72200012207031)"><path fill="rgb(112,255,129)" fill-opacity="1" d=" M0,-9.050000190734863 C4.99469518661499,-9.050000190734863 9.050000190734863,-4.99469518661499 9.050000190734863,0 C9.050000190734863,4.99469518661499 4.99469518661499,9.050000190734863 0,9.050000190734863 C-4.99469518661499,9.050000190734863 -9.050000190734863,4.99469518661499 -9.050000190734863,0 C-9.050000190734863,-4.99469518661499 -4.99469518661499,-9.050000190734863 0,-9.050000190734863z"></path></g></g><g style="display: block;" transform="matrix(0.55670565366745,0.22378303110599518,-0.22378303110599518,0.55670565366745,221.53721618652344,491.23455810546875)" opacity="1"><g opacity="1" transform="matrix(1.4800000190734863,0,0,1.4800000190734863,-209.75,-80.25)"><path fill="rgb(112,255,129)" fill-opacity="1" d=" M4.621204766542977e-16,-7.546999931335449 C4.621204766542977e-16,-7.546999931335449 1.8865000009536743,-3.2675137519836426 1.8865000009536743,-3.2675137519836426 C1.8865000009536743,-3.2675137519836426 6.53589391708374,-3.7734999656677246 6.53589391708374,-3.7734999656677246 C6.53589391708374,-3.7734999656677246 3.7730000019073486,-8.377742948056596e-16 3.7730000019073486,-8.377742948056596e-16 C3.7730000019073486,-8.377742948056596e-16 6.53589391708374,3.7734999656677246 6.53589391708374,3.7734999656677246 C6.53589391708374,3.7734999656677246 1.8865000009536743,3.2675137519836426 1.8865000009536743,3.2675137519836426 C1.8865000009536743,3.2675137519836426 3.813661659959975e-15,7.546999931335449 3.813661659959975e-15,7.546999931335449 C3.813661659959975e-15,7.546999931335449 -1.8865000009536743,3.2675137519836426 -1.8865000009536743,3.2675137519836426 C-1.8865000009536743,3.2675137519836426 -6.53589391708374,3.7734999656677246 -6.53589391708374,3.7734999656677246 C-6.53589391708374,3.7734999656677246 -3.7730000019073486,3.813156404806938e-15 -3.7730000019073486,3.813156404806938e-15 C-3.7730000019073486,3.813156404806938e-15 -6.53589391708374,-3.7734999656677246 -6.53589391708374,-3.7734999656677246 C-6.53589391708374,-3.7734999656677246 -1.8865000009536743,-3.2675137519836426 -1.8865000009536743,-3.2675137519836426 C-1.8865000009536743,-3.2675137519836426 4.621204766542977e-16,-7.546999931335449 4.621204766542977e-16,-7.546999931335449z"></path></g></g><g style="display: block;" transform="matrix(-0.8815503716468811,-0.02816123142838478,0.02816123142838478,-0.8815503716468811,225.56597900390625,407.18243408203125)" opacity="1"><g opacity="1" transform="matrix(1,0,0,1,0,0)"><path fill="rgb(255,255,255)" fill-opacity="1" d=" M102.25,-14.5 C101.25,-15 99.5,-11.75 98.5,-10.5 C97.5,-9.25 96,-3.25 96,0.25 C96,3.75 99.25,3.25 101.5,3.5 C103.75,3.75 104.5,8.5 103.75,11 C103,13.5 107.75,10.75 110,7 C110.9280014038086,5.453999996185303 108.5,3.5 108.75,-3 C108.81999969482422,-4.818999767303467 108.25,-6.25 106,-5.25 C103.75,-4.25 102,-1 102.5,-3.25 C103,-5.5 107,-7 106.25,-9.5 C105.5,-12 103.25,-14 102.25,-14.5z"></path></g></g><g style="display: block;" transform="matrix(-0.48725423216819763,0.35011905431747437,-0.35011905431747437,-0.48725423216819763,526.7279052734375,307.8040771484375)" opacity="1"><g opacity="1" transform="matrix(1,0,0,1,0,0)"><path fill="rgb(255,255,255)" fill-opacity="1" d=" M132,-114 C129.75,-116.25 126,-110.5 124,-107.75 C122,-105 123,-103 120,-95.5 C117,-88 119.25,-86 123,-86.25 C126.75,-86.5 132.25,-92.5 132.5,-96.75 C132.75,-101 134.25,-111.75 132,-114z"></path></g></g><g style="display: block;" transform="matrix(-0.5294761657714844,-0.7053928971290588,0.7053928971290588,-0.5294761657714844,569.7029418945312,471.685302734375)" opacity="1"><g opacity="1" transform="matrix(1,0,0,1,0,0)"><path fill="rgb(112,255,129)" fill-opacity="1" d=" M102.25,-14.5 C101.25,-15 99.5,-11.75 98.5,-10.5 C97.5,-9.25 96,-3.25 96,0.25 C96,3.75 99.25,3.25 101.5,3.5 C103.75,3.75 104.5,8.5 103.75,11 C103,13.5 107.75,10.75 110,7 C110.9280014038086,5.453999996185303 108.5,3.5 108.75,-3 C108.81999969482422,-4.818999767303467 108.25,-6.25 106,-5.25 C103.75,-4.25 102,-1 102.5,-3.25 C103,-5.5 107,-7 106.25,-9.5 C105.5,-12 103.25,-14 102.25,-14.5z"></path></g></g><g style="display: block;" transform="matrix(-0.06271708011627197,-0.5967131853103638,0.5967131853103638,-0.06271708011627197,511.2231140136719,262.94183349609375)" opacity="1"><g opacity="1" transform="matrix(1,0,0,1,-209.75,-80.25)"><path fill="rgb(255,255,255)" fill-opacity="1" d=" M4.621204766542977e-16,-7.546999931335449 C4.621204766542977e-16,-7.546999931335449 2.2177138328552246,-3.0524210929870605 2.2177138328552246,-3.0524210929870605 C2.2177138328552246,-3.0524210929870605 7.177623748779297,-2.332151174545288 7.177623748779297,-2.332151174545288 C7.177623748779297,-2.332151174545288 3.588336229324341,1.1659210920333862 3.588336229324341,1.1659210920333862 C3.588336229324341,1.1659210920333862 4.4360151290893555,6.105651378631592 4.4360151290893555,6.105651378631592 C4.4360151290893555,6.105651378631592 2.310296127921497e-16,3.7730000019073486 2.310296127921497e-16,3.7730000019073486 C2.310296127921497e-16,3.7730000019073486 -4.4360151290893555,6.105651378631592 -4.4360151290893555,6.105651378631592 C-4.4360151290893555,6.105651378631592 -3.588336229324341,1.1659210920333862 -3.588336229324341,1.1659210920333862 C-3.588336229324341,1.1659210920333862 -7.177623748779297,-2.332151174545288 -7.177623748779297,-2.332151174545288 C-7.177623748779297,-2.332151174545288 -2.2177138328552246,-3.0524210929870605 -2.2177138328552246,-3.0524210929870605 C-2.2177138328552246,-3.0524210929870605 4.621204766542977e-16,-7.546999931335449 4.621204766542977e-16,-7.546999931335449z"></path></g></g><g style="display: block;" transform="matrix(0.6000000238418579,0,0,0.6000000238418579,48.960750579833984,363.3158874511719)" opacity="1"><g opacity="1" transform="matrix(1,0,0,1,159.09300231933594,-46.43199920654297)"><path fill="rgb(255,255,255)" fill-opacity="1" d=" M0,-4.550000190734863 C2.5111451148986816,-4.550000190734863 4.550000190734863,-2.5111451148986816 4.550000190734863,0 C4.550000190734863,2.5111451148986816 2.5111451148986816,4.550000190734863 0,4.550000190734863 C-2.5111451148986816,4.550000190734863 -4.550000190734863,2.5111451148986816 -4.550000190734863,0 C-4.550000190734863,-2.5111451148986816 -2.5111451148986816,-4.550000190734863 0,-4.550000190734863z"></path></g></g><g style="display: block;" transform="matrix(0,-0.6000000238418579,0.6000000238418579,0,527.4191284179688,232.4165802001953)" opacity="1"><g opacity="1" transform="matrix(1,0,0,1,-209.75,-80.25)"><path fill="rgb(255,255,255)" fill-opacity="1" d=" M4.621204766542977e-16,-7.546999931335449 C4.621204766542977e-16,-7.546999931335449 2.2177138328552246,-3.0524210929870605 2.2177138328552246,-3.0524210929870605 C2.2177138328552246,-3.0524210929870605 7.177623748779297,-2.332151174545288 7.177623748779297,-2.332151174545288 C7.177623748779297,-2.332151174545288 3.588336229324341,1.1659210920333862 3.588336229324341,1.1659210920333862 C3.588336229324341,1.1659210920333862 4.4360151290893555,6.105651378631592 4.4360151290893555,6.105651378631592 C4.4360151290893555,6.105651378631592 2.310296127921497e-16,3.7730000019073486 2.310296127921497e-16,3.7730000019073486 C2.310296127921497e-16,3.7730000019073486 -4.4360151290893555,6.105651378631592 -4.4360151290893555,6.105651378631592 C-4.4360151290893555,6.105651378631592 -3.588336229324341,1.1659210920333862 -3.588336229324341,1.1659210920333862 C-3.588336229324341,1.1659210920333862 -7.177623748779297,-2.332151174545288 -7.177623748779297,-2.332151174545288 C-7.177623748779297,-2.332151174545288 -2.2177138328552246,-3.0524210929870605 -2.2177138328552246,-3.0524210929870605 C-2.2177138328552246,-3.0524210929870605 4.621204766542977e-16,-7.546999931335449 4.621204766542977e-16,-7.546999931335449z"></path></g></g><g style="display: none;" transform="matrix(0.894589900970459,0,0,0.894589900970459,381.7904052734375,180.3001708984375)" opacity="0.0787428571435649"><g opacity="1" transform="matrix(1,0,0,1,-29.5,37.5)"><path fill="rgb(255,255,255)" fill-opacity="1" d=" M0,-23.106000900268555 C-12.76099967956543,-23.106000900268555 -23.106000900268555,-12.76099967956543 -23.106000900268555,0 C-23.106000900268555,12.76099967956543 -12.76099967956543,23.106000900268555 0,23.106000900268555 C12.76099967956543,23.106000900268555 23.106000900268555,12.76099967956543 23.106000900268555,0 C23.106000900268555,-12.76099967956543 12.76099967956543,-23.106000900268555 0,-23.106000900268555z"></path></g></g><g style="display: none;" transform="matrix(1.0783984661102295,0,0,1.0783984661102295,387.2127380371094,173.49925231933594)" opacity="0.07847500000041308"><g opacity="1" transform="matrix(1,0,0,1,-29.5,37.5)"><path stroke-linecap="butt" stroke-linejoin="miter" fill-opacity="0" stroke-miterlimit="4" stroke="rgb(255,255,255)" stroke-opacity="1" stroke-width="4" d=" M0,-23.106000900268555 C-12.76099967956543,-23.106000900268555 -23.106000900268555,-12.76099967956543 -23.106000900268555,0 C-23.106000900268555,12.76099967956543 -12.76099967956543,23.106000900268555 0,23.106000900268555 C12.76099967956543,23.106000900268555 23.106000900268555,12.76099967956543 23.106000900268555,0 C23.106000900268555,-12.76099967956543 12.76099967956543,-23.106000900268555 0,-23.106000900268555z"></path></g></g></g></svg>